<?xml version="1.0" standalone="no"?>
<!DOCTYPE svg PUBLIC "-//W3C//DTD SVG 20010904//EN"
 "http://www.w3.org/TR/2001/REC-SVG-20010904/DTD/svg10.dtd">
<svg version="1.0" xmlns="http://www.w3.org/2000/svg"
 width="1086.000000pt" height="1280.000000pt" viewBox="0 0 1086.000000 1280.000000"
 preserveAspectRatio="xMidYMid meet">
<g transform="translate(0.000000,1280.000000) scale(0.100000,-0.100000)"
fill="#000000" stroke="none">
<path d="M6151 12781 c-168 -31 -267 -75 -321 -144 -37 -47 -77 -150 -105
-267 -74 -315 -87 -360 -121 -430 -63 -127 -147 -194 -316 -251 -89 -31 -103
-33 -308 -40 -288 -10 -315 -18 -572 -161 -126 -70 -148 -97 -155 -193 l-6
-63 42 -23 c64 -37 52 -55 -37 -51 l-72 4 -11 -31 c-19 -54 -94 -75 -178 -51
-38 11 -51 24 -51 57 0 41 -44 63 -128 63 -58 0 -97 7 -177 34 -137 46 -348
147 -368 177 -26 37 -22 134 9 224 32 93 24 124 -40 158 -35 19 -57 22 -159
22 l-118 0 -69 73 c-61 66 -71 73 -100 70 -46 -4 -71 -41 -72 -105 0 -51 18
-99 46 -122 23 -19 20 -45 -9 -91 -34 -54 -32 -88 16 -194 25 -56 45 -118 51
-161 18 -123 -5 -549 -37 -697 -9 -38 -32 -42 -84 -13 -25 14 -65 35 -88 46
-39 18 -43 24 -43 55 0 57 -14 74 -64 74 -60 0 -85 -23 -94 -85 l-7 -50 -23
38 c-22 38 -23 38 -80 37 -31 -1 -62 -1 -68 -1 -6 1 -14 22 -17 48 -6 59 -30
79 -102 88 -87 11 -119 0 -187 -61 -58 -54 -60 -55 -79 -38 -26 24 -67 112
-125 268 -77 210 -110 238 -289 237 -55 -1 -129 0 -165 2 l-65 2 0 -55 0 -55
-40 1 c-22 1 -89 3 -150 5 -109 3 -109 3 -147 37 l-38 35 -188 -1 c-213 -1
-340 -19 -411 -58 -37 -20 -56 -41 -95 -106 -90 -151 -66 -173 196 -187 144
-7 172 -17 145 -50 -10 -11 -36 -13 -145 -8 -120 6 -132 5 -121 -9 7 -9 15
-34 18 -57 6 -40 8 -42 48 -49 23 -4 53 -14 67 -23 30 -20 50 -70 33 -83 -7
-5 -81 -3 -180 6 -93 8 -173 10 -177 6 -14 -15 5 -116 25 -130 10 -7 38 -16
64 -19 103 -14 123 -25 154 -87 24 -46 30 -73 35 -147 l5 -91 69 0 c81 0 101
8 118 50 7 16 18 30 25 30 7 0 35 -24 64 -54 48 -51 51 -58 51 -106 0 -31 5
-52 13 -55 87 -30 136 -53 207 -95 47 -28 111 -63 142 -77 49 -24 57 -32 60
-58 2 -21 9 -31 23 -33 33 -7 45 -23 45 -63 0 -31 5 -42 27 -56 24 -15 48 -18
170 -15 118 2 143 0 143 -12 0 -14 -35 -30 -122 -56 -35 -11 -38 -14 -38 -50
0 -57 15 -66 122 -74 106 -7 165 -19 182 -36 8 -8 2 -20 -26 -45 -50 -46 -58
-64 -58 -132 0 -77 15 -96 97 -123 75 -24 138 -54 149 -71 9 -15 -12 -28 -58
-35 -20 -4 -45 -15 -54 -25 -16 -18 -16 -21 1 -59 20 -44 54 -60 133 -60 39 0
42 -2 42 -26 0 -14 -7 -50 -16 -80 -14 -49 -20 -57 -62 -78 -26 -13 -57 -35
-69 -48 -20 -21 -43 -68 -43 -87 0 -4 32 -57 70 -116 52 -80 77 -132 96 -195
45 -150 64 -181 152 -253 92 -75 92 -76 92 -111 0 -42 11 -51 80 -65 73 -15
170 -70 193 -109 18 -30 17 -32 -8 -91 -54 -130 -20 -198 171 -337 16 -12 26
-25 21 -30 -4 -4 -52 3 -107 16 l-100 24 -23 -22 c-47 -44 -72 -23 -113 98
-35 105 -39 110 -84 110 -30 0 -43 -6 -59 -26 -44 -56 -36 -175 17 -244 24
-32 27 -42 24 -108 -2 -64 1 -80 25 -125 15 -28 80 -106 144 -172 121 -126
158 -174 179 -239 10 -33 10 -40 -4 -54 -34 -35 -87 23 -194 214 -58 103 -74
121 -90 102 -5 -7 -31 -80 -56 -163 -25 -82 -57 -184 -71 -225 -53 -153 -166
-523 -162 -533 2 -6 20 -15 42 -21 73 -21 76 -76 3 -76 -74 0 -84 -7 -107 -68
-190 -526 -323 -829 -472 -1082 -83 -140 -109 -172 -188 -227 -126 -89 -154
-130 -131 -197 10 -31 19 -38 82 -62 72 -27 133 -71 143 -104 3 -11 -10 -48
-34 -93 -57 -108 -48 -125 87 -166 59 -18 85 -33 143 -84 91 -81 118 -94 198
-102 83 -9 108 -24 117 -72 4 -21 18 -54 31 -73 13 -19 28 -52 34 -73 6 -24
18 -41 32 -47 12 -5 85 -13 161 -19 l139 -10 49 -48 c39 -39 48 -54 48 -83 0
-19 4 -41 9 -49 11 -18 84 -30 183 -30 l78 -1 14 -33 c12 -30 22 -36 82 -55
38 -11 105 -27 149 -36 44 -8 99 -21 122 -28 33 -9 47 -9 69 0 26 12 27 15 22
81 -5 65 3 101 21 101 5 0 52 -29 105 -64 79 -53 106 -66 151 -71 64 -8 85
-24 85 -65 0 -36 17 -46 103 -60 100 -16 95 -12 123 -105 13 -43 63 -65 145
-65 41 0 70 -5 76 -13 6 -6 18 -46 27 -87 15 -70 22 -81 92 -163 126 -147 202
-179 279 -117 61 49 133 35 164 -31 19 -39 61 -66 135 -85 50 -13 58 -13 127
10 138 45 204 59 289 60 63 1 94 -4 119 -16 19 -10 40 -18 46 -18 20 0 25 76
25 364 l0 271 29 50 c86 150 336 311 641 412 180 60 271 67 347 29 48 -24 54
-31 59 -67 8 -51 34 -69 100 -69 71 0 188 -28 226 -54 18 -12 37 -37 45 -60
16 -49 39 -75 78 -91 36 -16 221 -39 235 -30 5 3 10 21 10 40 0 77 25 82 36 7
9 -65 18 -79 60 -92 28 -10 57 -10 131 0 116 16 122 12 104 -63 -17 -69 -13
-88 24 -107 17 -8 97 -55 178 -104 180 -108 249 -137 392 -168 90 -19 140 -23
275 -23 149 0 171 3 222 23 64 26 98 61 98 102 0 38 19 89 45 125 24 32 42 43
166 98 42 19 94 51 116 71 38 34 44 36 110 36 82 0 87 4 112 87 l17 58 85 5
84 5 17 37 c12 25 26 39 43 43 14 3 35 7 48 10 34 7 49 47 41 114 -6 57 -6 57
35 94 22 20 63 48 90 61 58 30 81 58 81 103 0 81 -29 103 -168 122 -109 16
-167 37 -321 116 -167 86 -175 95 -179 193 -3 67 0 88 28 162 17 47 35 107 38
134 l7 50 50 11 50 10 8 134 c4 73 5 136 1 140 -3 3 -44 9 -91 12 -101 6 -99
5 -143 127 -32 89 -41 162 -21 186 8 10 49 15 149 18 121 4 144 7 194 30 63
29 113 87 124 143 6 33 -21 194 -38 228 -5 9 -17 17 -28 17 -11 0 -24 8 -29
18 -9 16 -31 161 -31 200 0 7 -15 19 -34 27 -43 18 -66 50 -66 92 0 38 14 48
83 58 92 14 127 68 127 197 0 65 -1 68 -35 94 -19 14 -35 34 -35 43 0 10 -16
40 -35 67 -19 27 -35 61 -35 76 0 15 13 61 30 103 40 101 46 144 26 183 -23
44 -65 53 -206 43 -96 -6 -127 -13 -190 -40 -105 -45 -115 -53 -165 -131 -36
-57 -51 -71 -82 -80 -45 -14 -95 -10 -100 7 -3 7 23 25 60 43 36 17 71 38 78
47 10 12 14 50 14 137 0 108 3 126 24 166 37 69 124 155 179 175 96 36 163 75
172 101 6 14 10 54 10 89 0 111 -9 102 277 275 67 41 137 94 190 145 79 76 83
82 83 123 0 24 -7 57 -16 74 -18 36 -12 73 16 88 17 9 28 2 79 -44 71 -66 112
-80 180 -62 57 15 146 69 164 100 6 11 14 69 17 128 5 102 6 108 38 147 31 39
33 45 27 96 -7 54 -7 54 28 75 40 24 38 16 55 203 9 93 11 100 44 135 45 47
45 46 108 232 83 246 84 247 214 344 145 110 200 168 220 237 9 29 16 63 16
76 0 37 -26 90 -52 106 -40 26 -220 89 -298 104 -83 17 -96 25 -152 101 -21
29 -57 64 -79 79 l-40 26 -22 -21 c-20 -19 -35 -22 -99 -22 -90 0 -109 12
-135 85 -24 65 -50 78 -138 69 -59 -6 -68 -10 -76 -32 -7 -19 -12 -22 -23 -13
-20 17 -33 53 -60 178 -37 167 -57 196 -144 213 -58 11 -82 21 -102 44 -15 19
-58 20 -109 5 -40 -12 -195 1 -212 18 -6 6 -15 32 -22 59 -11 46 -14 49 -47
53 -19 1 -81 -5 -137 -14 -114 -20 -133 -15 -133 34 0 69 -19 98 -113 178 -51
42 -129 111 -174 152 l-83 75 0 51 c0 27 16 115 35 195 48 200 46 240 -13 240
-39 0 -84 -34 -156 -119 -76 -91 -115 -118 -177 -127 -49 -7 -138 19 -189 56
-26 18 -30 28 -30 65 0 24 12 91 26 147 37 148 25 212 -46 240 -14 6 -72 14
-130 18 -110 8 -156 22 -162 49 -3 9 -2 45 1 81 11 123 5 129 -137 140 -75 5
-98 11 -109 25 -9 14 -13 57 -13 154 0 89 -5 145 -13 161 -22 43 -112 71 -249
77 -108 5 -119 8 -140 30 -22 24 -23 29 -20 198 l3 174 -43 12 c-136 37 -292
44 -427 20z m352 -28 c112 -21 112 -22 91 -148 -5 -33 -8 -37 -14 -20 -5 11
-9 43 -9 72 -1 82 -4 83 -204 83 -199 -1 -300 -16 -391 -58 -79 -37 -125 -85
-153 -159 -37 -96 -93 -303 -100 -364 l-6 -57 49 -25 c27 -14 60 -34 74 -46
l25 -21 -50 19 c-89 34 -124 50 -130 61 -3 5 1 33 9 62 8 29 26 107 40 174 55
254 115 345 266 400 124 45 348 57 503 27z m430 -444 c21 -7 49 -23 63 -35 21
-20 24 -32 24 -86 0 -35 -3 -94 -7 -133 l-8 -70 -6 55 c-4 30 -7 92 -8 137
l-1 81 -32 11 c-27 9 -217 41 -245 41 -5 0 -1 5 7 11 19 13 161 5 213 -12z
m-1176 -279 c99 -45 158 -86 187 -130 14 -22 24 -40 20 -40 -3 0 -28 20 -54
43 -48 43 -175 117 -201 117 -7 0 -24 -12 -37 -27 l-23 -28 7 35 c6 32 20 60
30 60 3 0 35 -14 71 -30z m-2903 -132 c20 -23 34 -44 31 -46 -2 -3 -23 7 -45
23 -22 15 -46 25 -55 21 -23 -8 -19 -84 6 -125 25 -41 20 -48 -14 -21 -29 23
-52 89 -41 123 23 78 65 87 118 25z m3126 27 c39 -47 98 -80 189 -106 l96 -27
-75 5 c-122 7 -173 34 -225 116 -18 28 -6 38 15 12z m1296 -40 c11 -14 13 -32
8 -60 -10 -63 -23 -77 -24 -25 0 25 -4 51 -8 58 -5 7 -35 17 -67 22 -94 15
-95 33 -2 28 64 -3 82 -7 93 -23z m-1737 -106 l-33 -41 46 -42 c26 -22 55 -54
65 -71 l18 -30 -30 23 c-16 13 -54 47 -84 75 l-53 51 43 38 c58 49 69 48 28
-3z m-2559 -1 c0 -12 -24 -10 -38 4 -20 20 -13 28 13 16 14 -6 25 -15 25 -20z
m248 -2 c44 -23 59 -56 42 -96 -19 -47 -28 -45 -27 7 2 42 -1 49 -26 61 -15 7
-60 16 -100 18 -92 7 -107 11 -87 25 23 15 160 5 198 -15z m3030 -17 c31 -12
36 -32 18 -66 l-15 -28 -1 32 c0 34 -10 40 -108 59 -18 4 -35 11 -38 16 -7 11
108 0 144 -13z m-722 -113 l86 -85 -4 -118 c-2 -69 -9 -126 -16 -138 -10 -16
-11 3 -9 106 2 124 2 126 -27 167 -16 23 -49 58 -73 78 l-45 37 -50 -12 c-27
-7 -52 -11 -55 -8 -5 5 84 56 100 57 4 0 46 -38 93 -84z m1766 5 c-17 -3 -42
24 -42 47 0 8 11 2 29 -15 22 -22 25 -29 13 -32z m-982 5 c0 -21 6 -25 50 -31
56 -8 77 -25 31 -25 -46 0 -111 29 -111 49 0 10 3 21 7 24 13 14 23 6 23 -17z
m-3530 -50 c-14 -43 -8 -75 32 -174 16 -41 27 -76 25 -78 -8 -8 -89 170 -94
206 -4 26 1 42 17 63 28 35 35 29 20 -17z m4784 20 c66 -28 80 -79 50 -191
-23 -92 -37 -94 -29 -5 11 104 8 143 -10 156 -9 7 -45 17 -80 24 -36 7 -65 16
-65 21 0 14 97 10 134 -5z m-2559 -5 c29 -7 28 -7 -15 -14 -25 -3 -101 -11
-169 -17 -138 -13 -172 -23 -335 -108 -139 -72 -186 -113 -193 -168 -4 -29 0
-49 12 -68 19 -28 9 -34 -26 -16 -14 8 -19 21 -19 56 0 72 30 117 107 162 178
104 313 162 408 175 49 7 198 5 230 -2z m1430 -53 c25 -11 72 -74 62 -84 -2
-2 -23 11 -47 31 -23 19 -54 38 -69 41 -59 12 -68 23 -19 23 26 1 59 -4 73
-11z m145 -71 c19 -13 38 -15 91 -11 45 5 68 3 73 -5 5 -8 -9 -11 -46 -11 -29
0 -70 -3 -91 -6 -35 -6 -41 -3 -77 35 -50 52 -56 90 -7 44 17 -16 43 -37 57
-46z m-3366 21 c-9 -59 -14 -60 -14 -5 0 26 5 47 10 47 6 0 8 -16 4 -42z
m3542 -93 c9 -14 13 -32 10 -41 -5 -14 -9 -13 -25 7 -14 18 -31 23 -80 27 -97
7 -74 27 36 31 35 1 45 -3 59 -24z m54 -20 c10 -27 30 -31 78 -14 51 17 61 4
15 -19 -75 -39 -113 -28 -113 34 0 31 8 31 20 -1z m210 -52 c6 -16 15 -36 20
-45 12 -21 7 -22 -21 -8 -10 6 -19 17 -19 25 0 21 -15 26 -48 14 -17 -6 -39
-9 -49 -6 -13 3 -6 10 27 25 60 29 78 28 90 -5z m125 -11 c36 -2 65 -8 65 -12
0 -9 -51 -20 -95 -20 -38 0 -82 31 -71 49 6 9 11 9 22 0 7 -6 43 -14 79 -17z
m1030 -42 c-1 -49 -41 -208 -50 -198 -2 2 3 52 12 111 9 59 14 110 10 113 -4
4 -32 -15 -62 -42 -115 -101 -125 -105 -69 -34 56 72 108 112 139 108 17 -3
20 -10 20 -58z m-4775 -1 c52 -27 84 -47 70 -43 -35 9 -190 81 -190 88 0 14
31 2 120 -45z m2235 -227 c-3 -23 -10 -40 -15 -37 -24 15 -18 259 8 299 9 14
15 -205 7 -262z m1777 212 c78 -68 137 -102 149 -83 6 10 11 10 23 0 22 -19
20 -31 -6 -31 -54 0 -102 24 -164 80 -36 32 -74 62 -84 65 -26 8 -26 25 -1 25
11 0 48 -25 83 -56z m-127 16 c16 -6 17 -9 5 -13 -30 -11 -96 -15 -120 -7 -23
6 -22 8 15 14 22 4 45 9 50 11 16 5 28 4 50 -5z m118 -71 c69 -68 52 -71 -29
-6 -57 46 -72 67 -48 67 9 0 44 -27 77 -61z m-6112 -9 c32 -18 23 -33 -16 -27
-19 3 -37 1 -40 -4 -10 -16 -25 -10 -25 10 0 18 8 22 53 30 5 0 17 -4 28 -9z
m2289 0 c8 -5 11 -10 5 -10 -5 0 -17 5 -25 10 -8 5 -10 10 -5 10 6 0 17 -5 25
-10z m-2020 -22 c57 -22 88 -73 152 -256 36 -104 82 -204 111 -239 5 -7 18
-13 28 -13 11 0 19 -4 19 -10 0 -17 -22 -11 -55 14 -24 19 -46 57 -89 158
-104 239 -119 269 -153 298 -28 25 -42 30 -88 30 -56 0 -85 7 -85 20 0 21 104
19 160 -2z m-746 -19 c24 -11 42 -37 32 -46 -2 -3 -13 0 -24 6 -26 14 -290 14
-424 1 -108 -11 -155 -29 -204 -82 -34 -36 -64 -91 -64 -118 0 -21 71 -36 216
-46 154 -10 135 -26 -26 -21 -213 7 -258 31 -203 109 15 23 37 58 48 79 26 50
47 65 125 89 109 34 469 54 524 29z m3078 -16 c17 -15 26 -63 12 -63 -3 0 -15
11 -25 24 -10 13 -31 27 -46 31 -21 5 -24 8 -12 16 22 14 51 11 71 -8z m4053
-17 c-29 -38 -54 -51 -68 -37 -6 6 8 21 39 40 27 17 50 31 52 31 2 0 -9 -15
-23 -34z m-385 -6 c24 -8 24 -8 -5 -9 -16 0 -37 4 -45 9 -12 8 -11 10 5 9 11
-1 31 -5 45 -9z m-3295 -6 c11 -5 0 -12 -37 -25 -29 -9 -54 -16 -56 -14 -2 2
1 13 8 24 11 21 50 28 85 15z m132 -53 c62 -104 92 -341 50 -404 -22 -33 -43
-37 -31 -4 5 12 9 83 9 157 0 131 -1 137 -32 203 -23 47 -40 70 -58 77 -30 11
-24 33 8 28 14 -2 34 -23 54 -57z m3239 45 c3 -8 -3 -34 -14 -58 l-20 -43 1
57 c1 40 6 58 15 58 7 0 15 -6 18 -14z m65 4 c27 -15 24 -30 -6 -30 -19 0 -25
-5 -25 -22 0 -36 -39 -181 -52 -193 -17 -16 -3 90 22 165 12 36 23 71 25 78 5
15 11 15 36 2z m-6668 -27 c-13 -2 -33 -2 -45 0 -13 2 -3 4 22 4 25 0 35 -2
23 -4z m4555 -177 c-4 -109 -10 -153 -25 -193 -23 -59 -88 -140 -142 -177 -70
-49 -65 -26 11 52 105 105 119 140 125 301 2 69 6 142 9 161 5 30 7 32 16 16
7 -12 9 -72 6 -160z m-1101 20 l3 -61 -25 90 c-30 109 -30 108 -3 66 15 -23
23 -54 25 -95z m3093 -69 c-11 -38 -35 -59 -80 -72 -23 -6 -22 -3 12 28 24 23
42 53 55 93 17 57 18 58 21 24 2 -19 -1 -52 -8 -73z m530 49 c0 -48 14 -64
198 -220 51 -44 91 -84 89 -90 -9 -23 -243 -355 -359 -508 l-118 -157 0 -187
0 -187 59 -96 c32 -53 64 -107 70 -121 24 -51 -47 42 -104 135 l-55 91 0 181
0 181 53 73 c29 41 121 166 203 279 238 326 232 316 193 343 -11 8 -76 69
-144 136 l-123 121 10 40 c13 50 28 42 28 -14z m-7600 -91 c0 -8 -2 -15 -4
-15 -2 0 -6 7 -10 15 -3 8 -1 15 4 15 6 0 10 -7 10 -15z m1650 -45 c23 -12 35
-51 25 -77 -5 -15 -9 -12 -20 14 -17 39 -42 53 -98 53 -43 0 -63 -10 -147 -71
-16 -13 -32 -20 -35 -17 -7 6 75 86 107 105 26 15 135 11 168 -7z m666 -128
c-13 -97 -20 -122 -30 -111 -3 3 29 230 35 249 1 3 4 -4 6 -15 2 -11 -3 -66
-11 -123z m2781 106 c-3 -7 -5 -2 -5 12 0 14 2 19 5 13 2 -7 2 -19 0 -25z
m1953 22 c0 -6 -7 -13 -16 -17 -27 -10 -93 -122 -114 -194 -26 -88 -46 -103
-36 -28 9 69 67 189 107 223 31 27 59 34 59 16z m-7173 -21 c74 -1 93 -3 79
-11 -11 -6 -58 -11 -105 -12 -93 -1 -116 -12 -62 -30 53 -17 52 -36 -1 -22
-55 14 -68 23 -63 41 3 8 7 22 10 31 3 10 11 13 25 9 11 -3 63 -6 117 -6z
m5204 -78 c-29 -53 -2 -78 122 -117 45 -14 54 -20 39 -25 -31 -12 -103 9 -159
47 -56 36 -61 45 -40 63 8 6 20 30 27 53 11 34 15 38 18 21 2 -12 -2 -31 -7
-42z m-1120 -58 c-48 -72 -38 -153 20 -153 25 0 25 -17 -1 -25 -49 -16 -80 23
-80 100 0 34 6 52 29 77 15 18 34 51 42 73 l14 40 3 -33 c2 -24 -5 -46 -27
-79z m-1936 45 c0 -55 -17 -65 -25 -16 -4 24 -11 34 -27 36 -18 3 -22 -3 -28
-40 -3 -24 -9 -52 -12 -63 l-6 -20 -8 20 c-4 11 -8 37 -8 58 -1 51 28 79 77
75 l37 -3 0 -47z m4875 2 c-12 -23 -24 -40 -26 -37 -3 3 4 24 16 47 12 23 24
40 26 37 3 -3 -4 -24 -16 -47z m-5080 -10 c19 -10 45 -81 37 -103 -2 -7 -12 4
-22 23 -23 45 -19 42 -61 49 -41 7 -47 23 -12 33 34 9 38 9 58 -2z m-130 -10
c0 -5 -2 -10 -4 -10 -3 0 -8 5 -11 10 -3 6 -1 10 4 10 6 0 11 -4 11 -10z
m-1785 -65 c6 -29 6 -29 -9 -11 -9 11 -16 29 -16 40 0 28 17 8 25 -29z m2246
-27 c70 -42 89 -66 89 -111 -1 -22 -1 -21 -20 3 -10 14 -29 37 -40 52 -12 15
-48 39 -80 54 -33 15 -60 31 -60 35 0 20 45 6 111 -33z m2904 17 c32 -26 23
-33 -19 -14 -23 11 -31 8 -78 -29 -68 -52 -180 -160 -201 -192 -15 -24 -15
-34 4 -149 11 -68 18 -129 16 -134 -4 -14 -57 222 -57 255 0 34 120 166 185
203 22 14 54 38 70 55 35 36 42 37 80 5z m-1175 -30 c0 -25 -4 -45 -10 -45
-11 0 -14 73 -3 83 11 12 13 8 13 -38z m4064 26 c10 -10 21 -47 26 -81 5 -34
14 -68 21 -76 9 -11 8 -14 -9 -14 -21 0 -28 16 -47 107 -4 18 -10 35 -15 38
-4 3 -52 -53 -107 -124 -54 -71 -99 -128 -101 -126 -5 4 155 243 181 273 25
27 29 27 51 3z m-1099 -100 c-9 -18 -23 -31 -34 -31 -17 0 -16 6 13 65 31 65
31 65 34 31 2 -19 -4 -49 -13 -65z m-7169 79 c149 -16 160 -31 18 -26 -67 2
-127 0 -134 -4 -23 -14 -3 -37 44 -50 26 -7 49 -17 52 -21 9 -15 -75 -10 -106
6 -25 13 -30 22 -30 54 0 21 3 41 7 44 9 9 40 9 149 -3z m2224 -30 c0 -5 -9
-10 -20 -10 -11 0 -20 5 -20 10 0 6 9 10 20 10 11 0 20 -4 20 -10z m3465 0 c8
-13 -15 -13 -35 0 -12 8 -11 10 7 10 12 0 25 -4 28 -10z m-3073 -55 c7 -87 46
-112 127 -84 46 16 48 5 5 -20 -59 -35 -89 -37 -117 -9 -32 32 -63 134 -46
154 20 24 26 16 31 -41z m3056 24 c106 -30 155 -52 201 -94 53 -49 53 -64 -1
-27 -72 49 -127 73 -226 98 -52 12 -100 28 -106 34 -17 17 51 12 132 -11z
m1391 -26 c51 -22 20 -29 -35 -8 -52 20 -72 42 -29 31 16 -4 45 -14 64 -23z
m-108 -4 c19 -7 41 -18 49 -26 13 -12 10 -12 -20 -6 -19 4 -53 8 -75 8 l-40 0
2 -72 c1 -40 -2 -73 -6 -73 -18 0 -43 72 -37 103 15 73 50 91 127 66z m-146
-39 c-4 -12 -9 -19 -12 -17 -3 3 -2 15 2 27 4 12 9 19 12 17 3 -3 2 -15 -2
-27z m1783 22 c7 -5 16 -26 19 -47 4 -27 3 -36 -5 -31 -7 4 -12 13 -12 21 0
23 -22 29 -90 26 -77 -3 -75 3 6 23 73 18 67 17 82 8z m-4253 -18 c17 -7 48
-63 58 -104 3 -14 2 -41 -2 -60 l-8 -35 -11 43 c-7 23 -16 59 -22 80 -7 27
-18 42 -37 51 -22 10 -24 14 -12 22 17 11 14 10 34 3z m-1478 -10 c-3 -3 -12
-4 -19 -1 -8 3 -5 6 6 6 11 1 17 -2 13 -5z m3086 -20 c53 -36 105 -52 205 -64
48 -6 103 -13 122 -17 31 -5 32 -7 12 -14 -28 -11 -247 15 -293 34 -56 23
-123 87 -91 87 4 0 24 -11 45 -26z m-5862 -6 c11 -21 11 -22 -4 -9 -10 7 -17
17 -17 22 0 15 9 10 21 -13z m4329 -6 c0 -15 -2 -15 -10 -2 -13 20 -13 33 0
25 6 -3 10 -14 10 -23z m-1508 -19 c38 -40 61 -129 49 -184 -12 -52 -67 -109
-106 -109 -36 0 -31 11 19 43 70 44 82 106 39 195 -16 32 -22 37 -53 36 -19 0
-48 -4 -64 -9 -43 -12 -24 12 28 36 54 24 58 24 88 -8z m94 -30 c76 -57 212
-100 377 -119 62 -7 74 -19 28 -29 -53 -11 -257 39 -385 96 -45 19 -76 51 -76
77 0 15 8 11 56 -25z m5979 -43 l20 -22 -60 7 c-33 4 -63 9 -67 12 -17 9 -6
23 25 31 36 10 53 4 82 -28z m-3998 -33 c-48 -81 -76 -92 -211 -81 -114 9 -88
23 57 31 l97 6 22 36 c12 20 28 44 37 54 26 31 25 0 -2 -46z m-2289 37 c-9 -9
-24 -14 -32 -11 -27 11 -17 27 16 27 30 0 31 -1 16 -16z m4142 -3 c16 -30 12
-59 -9 -71 -28 -14 -36 -13 -21 5 8 9 10 28 6 50 -8 38 7 48 24 16z m-3775
-53 l30 -20 -37 6 c-30 4 -41 1 -52 -15 -14 -20 -14 -20 -21 10 -12 56 15 62
80 19z m1455 -58 c50 -5 53 -6 33 -17 -32 -19 -87 -16 -106 5 -17 19 -22 39
-18 82 2 21 5 18 19 -20 17 -45 18 -45 72 -50z m1880 70 c22 -22 25 -37 11
-59 -7 -11 -10 -9 -16 9 -7 23 -59 50 -95 50 -11 0 -20 5 -20 10 0 6 23 10 50
10 37 0 55 -5 70 -20z m-6250 -42 c7 -29 18 -56 24 -60 23 -16 55 -7 79 22 32
37 41 38 32 3 -10 -43 -19 -48 -87 -48 l-63 0 -3 68 c-2 37 -1 67 2 67 2 0 10
-24 16 -52z m4917 -109 c33 -161 42 -240 22 -206 -6 10 -19 66 -30 124 -21
119 -37 183 -45 183 -4 0 -20 -11 -36 -25 -17 -14 -33 -23 -37 -20 -3 4 2 11
12 16 9 6 26 28 38 50 11 22 25 39 32 36 6 -2 26 -73 44 -158z m4079 130 c14
-13 31 -46 39 -74 17 -58 38 -186 32 -192 -3 -2 -17 42 -32 97 -33 117 -55
157 -93 170 -63 23 -69 30 -19 26 33 -2 56 -11 73 -27z m-8818 3 c2 -7 -6 -12
-17 -12 -21 0 -27 11 -14 24 9 9 26 2 31 -12z m6133 -68 c11 -77 18 -88 69
-102 l35 -10 -47 -1 c-68 -1 -78 13 -78 111 0 45 3 79 6 76 3 -3 10 -37 15
-74z m-6042 -9 c22 -24 41 -47 41 -50 0 -23 -67 34 -91 78 -18 32 8 18 50 -28z
m6421 27 c0 -4 -21 -28 -46 -52 -77 -75 -138 -178 -178 -297 -49 -145 -75
-190 -37 -62 11 35 22 85 25 110 11 76 176 309 219 309 10 0 17 -4 17 -8z
m1114 -17 c-9 -14 -19 -23 -22 -20 -5 4 26 45 35 45 2 0 -4 -11 -13 -25z
m-4319 5 c3 -5 2 -10 -4 -10 -5 0 -13 5 -16 10 -3 6 -2 10 4 10 5 0 13 -4 16
-10z m-51 -14 c24 -10 42 -31 69 -80 21 -37 37 -69 37 -73 0 -13 -41 32 -68
74 -28 45 -62 63 -117 63 -18 0 -48 3 -66 7 l-34 7 30 7 c52 12 114 10 149 -5z
m1256 -5 c47 -13 3 -21 -144 -28 -106 -4 -146 -3 -146 5 0 14 27 21 100 25 98
6 164 5 190 -2z m1838 -81 c-55 -83 -78 -102 -78 -64 0 8 4 14 9 14 6 0 34 31
63 70 29 38 56 69 59 70 4 0 -20 -40 -53 -90z m-2971 10 c48 -73 75 -90 111
-71 37 20 48 11 19 -14 -54 -48 -97 -26 -158 80 -27 46 -36 75 -24 75 3 0 26
-32 52 -70z m-724 40 c-6 -22 -58 -70 -75 -70 -8 0 68 87 79 90 0 0 -1 -9 -4
-20z m1482 3 c15 -14 17 -35 13 -148 -4 -151 -14 -178 -75 -194 -53 -15 -62 2
-13 24 23 10 45 26 49 34 5 9 11 59 15 111 6 86 2 121 -19 173 -9 22 8 22 30
0z m55 -44 c0 -24 -4 -38 -10 -34 -5 3 -10 22 -10 41 0 19 5 34 10 34 6 0 10
-18 10 -41z m-1654 -52 l-29 -23 13 -88 c7 -48 10 -90 6 -93 -11 -11 -39 72
-43 133 -6 69 9 94 55 94 l27 0 -29 -23z m-2328 -52 c47 -23 36 -27 -26 -9
-49 15 -52 18 -52 47 l0 32 23 -27 c12 -14 37 -34 55 -43z m6032 30 c7 -8 15
-35 17 -59 9 -76 -80 -340 -140 -421 -31 -40 -25 -7 13 78 79 176 117 342 88
380 -8 10 -30 22 -48 27 -35 8 -35 8 11 9 30 1 51 -4 59 -14z m-2562 -27 c15
-7 33 -25 41 -39 13 -23 12 -33 -12 -105 -27 -82 -34 -69 -17 31 11 67 -4 91
-64 100 -41 7 -62 3 -118 -20 -33 -13 -18 11 20 33 40 25 99 24 150 0z m79
-13 c9 -25 -4 -29 -17 -6 -7 15 -7 21 0 21 6 0 13 -7 17 -15z m3699 -215 c1
-169 -1 -198 -12 -189 -11 9 -14 52 -14 194 0 168 3 195 19 195 4 0 7 -90 7
-200z m-2581 5 c55 -33 60 -54 11 -41 -53 13 -87 84 -85 178 1 41 2 40 29 -42
15 -46 35 -89 45 -95z m4274 148 c22 -19 41 -83 24 -83 -5 0 -15 12 -22 26 -7
15 -27 32 -52 42 -27 10 -36 18 -27 24 21 13 54 9 77 -9z m-119 4 c0 -10 -33
-67 -41 -73 -6 -3 -17 -3 -27 1 -14 5 -12 8 8 18 14 7 26 23 28 35 2 12 10 22
18 22 8 0 14 -2 14 -3z m-8581 -47 c82 -41 99 -54 81 -65 -11 -7 -128 52 -170
85 -44 34 3 24 89 -20z m2040 -32 c36 -105 25 -168 -29 -168 -40 0 -47 17 -9
25 35 8 34 -3 13 158 -4 26 -4 47 -1 47 3 0 15 -28 26 -62z m1271 22 c0 -34
-24 -110 -33 -107 -14 5 -12 51 4 89 11 27 29 38 29 18z m5744 -90 c80 -71
114 -162 87 -233 -16 -42 -44 -42 -129 -2 -42 20 -97 43 -122 52 -46 15 -74
33 -53 33 7 0 66 -21 134 -46 67 -25 128 -43 137 -39 12 4 13 16 8 61 -3 31
-13 68 -21 84 -23 44 -74 90 -100 90 -18 0 -23 4 -19 15 9 24 40 18 78 -15z
m-8905 -17 c19 -18 34 -44 40 -72 5 -24 15 -48 23 -52 7 -5 69 -9 138 -10
l125 -1 -70 -15 c-76 -15 -178 -13 -213 6 -18 10 -22 21 -22 62 0 47 -1 50
-30 56 -34 6 -44 17 -36 38 7 20 10 19 45 -12z m8776 7 c4 -6 -10 -10 -34 -10
-22 0 -43 5 -46 10 -4 6 10 10 34 10 22 0 43 -4 46 -10z m-5309 -15 c-11 -8
-23 -15 -27 -15 -14 0 -18 -29 -8 -65 6 -20 8 -42 6 -48 -6 -15 -47 77 -47
103 0 24 26 39 65 39 29 0 29 0 11 -14z m754 -16 c0 -6 -4 -7 -10 -4 -5 3 -10
11 -10 16 0 6 5 7 10 4 6 -3 10 -11 10 -16z m-985 -64 c88 -65 132 -91 141
-82 4 3 -1 33 -10 65 -25 91 -18 94 18 8 19 -44 32 -85 29 -92 -8 -21 -34 -25
-66 -9 -41 19 -199 146 -205 164 -6 18 4 12 93 -54z m-1285 37 c0 -22 -26 -59
-35 -50 -6 6 21 68 30 68 3 0 5 -8 5 -18z m2408 -18 c17 -12 22 -25 22 -60 0
-54 -16 -50 -25 6 -6 35 -10 40 -41 46 -19 3 -37 10 -40 15 -9 15 60 10 84 -7z
m-2533 -44 c3 -5 -2 -10 -11 -10 -10 0 -39 -23 -66 -52 -26 -29 -48 -47 -48
-40 0 22 39 90 57 101 23 13 60 14 68 1z m1422 -43 c37 -29 76 -56 86 -60 26
-10 31 -33 18 -78 -16 -53 -31 -49 -28 7 2 46 1 48 -52 85 -63 44 -121 99
-104 99 6 0 42 -24 80 -53z m-1558 -19 c-34 -68 -65 -108 -85 -108 -15 0 -19
6 -28 45 -6 27 -5 28 7 13 8 -10 19 -18 24 -18 6 0 30 29 53 65 23 36 46 65
51 65 5 0 -5 -28 -22 -62z m7540 0 c201 -71 228 -93 218 -178 -8 -67 -31 -113
-85 -167 -45 -44 -172 -136 -180 -129 -2 2 18 24 45 47 142 128 170 161 183
222 18 77 6 100 -65 132 -75 33 -239 85 -268 85 -16 0 -28 -10 -40 -32 l-16
-33 0 41 c-1 22 2 44 7 48 12 13 113 -5 201 -36z m-501 -12 c99 -37 170 -76
139 -76 -10 0 -66 18 -124 40 -152 57 -198 52 -191 -22 2 -27 11 -37 46 -56
24 -13 41 -26 39 -29 -9 -9 -97 20 -113 38 -20 23 -13 75 17 113 28 36 75 34
187 -8z m-7215 17 c-7 -2 -19 -2 -25 0 -7 3 -2 5 12 5 14 0 19 -2 13 -5z
m-487 -10 c-11 -11 -76 -31 -76 -23 0 4 10 12 23 18 25 12 64 16 53 5z m3480
-57 c21 -4 46 -11 54 -16 20 -13 -80 -13 -114 0 -29 11 -48 42 -40 64 5 13 11
11 33 -13 17 -18 42 -31 67 -35z m1044 -26 c-37 -85 -35 -103 21 -169 68 -81
49 -73 -57 26 -28 26 -31 67 -9 120 18 42 65 107 72 100 2 -3 -10 -38 -27 -77z
m-4397 29 c23 -29 9 -36 -32 -15 -69 36 -134 11 -171 -67 l-20 -42 4 49 c2 27
11 55 20 65 46 46 165 52 199 10z m76 -6 c7 -3 33 4 57 17 58 32 67 19 13 -19
-52 -38 -81 -39 -108 -5 -28 35 -27 51 2 30 12 -9 28 -19 36 -23z m308 25 c16
-22 42 -98 33 -98 -5 0 -22 19 -38 43 -26 39 -32 42 -69 40 -22 -1 -68 -15
-102 -32 -33 -17 -66 -31 -73 -31 -16 1 36 45 82 70 41 23 152 27 167 8z
m1903 -3 c0 -3 -9 -18 -21 -34 -12 -17 -24 -56 -31 -102 -12 -84 -23 -105 -32
-61 -9 40 22 163 46 185 20 17 38 22 38 12z m5047 -27 c-3 -7 -5 -2 -5 12 0
14 2 19 5 13 2 -7 2 -19 0 -25z m-8220 -24 c-38 -21 -31 -34 29 -53 l49 -16
-58 -3 c-65 -3 -87 8 -87 44 0 27 24 43 65 43 l30 0 -28 -15z m8733 1 c-7 -8
-18 -15 -24 -15 -6 0 -2 7 8 15 25 19 32 19 16 0z m-4478 -20 c86 -9 114 -21
131 -58 15 -32 34 -157 24 -157 -3 0 -13 26 -22 57 -9 32 -24 71 -32 86 -16
33 -75 61 -108 53 -26 -7 -85 11 -85 26 0 6 6 8 14 5 8 -3 43 -9 78 -12z
m-3619 -66 c-14 -51 -50 -71 -135 -76 -84 -5 -239 24 -246 47 -4 10 0 11 14 4
11 -5 81 -10 156 -12 133 -3 178 4 178 29 0 5 8 26 17 47 14 31 17 34 20 16 2
-12 0 -37 -4 -55z m6097 -30 c41 -56 116 -143 166 -193 50 -50 99 -105 107
-122 9 -17 21 -69 27 -115 20 -161 11 -159 -30 7 l-29 118 -115 116 c-105 105
-155 171 -200 258 -31 60 -1 32 74 -69z m-1543 24 c-3 -10 -5 -4 -5 12 0 17 2
24 5 18 2 -7 2 -21 0 -30z m3180 -2 c62 -29 72 -77 46 -216 -3 -20 -27 -51
-72 -92 l-66 -62 3 -131 2 -130 -46 -118 c-114 -290 -239 -448 -349 -440 -39
3 -40 4 -42 43 -2 37 -1 38 8 13 15 -38 32 -40 91 -10 93 49 208 231 279 445
30 86 31 99 27 203 -6 127 -3 134 64 193 58 51 91 117 90 178 -2 59 -23 90
-78 113 -24 11 -44 22 -44 25 0 11 47 4 87 -14z m-3918 -71 c31 -117 38 -121
173 -114 89 4 91 3 61 -11 -47 -21 -162 -29 -193 -13 -33 17 -56 69 -64 143
-7 67 4 64 23 -5z m4014 -75 c-9 -111 -18 -103 -18 16 0 96 2 107 12 82 8 -18
10 -52 6 -98z m-5394 40 c2 -70 -121 -221 -229 -283 -46 -26 -65 -32 -115 -31
-33 0 -78 6 -100 14 -40 13 -40 13 43 14 118 1 164 16 222 68 75 67 137 155
145 205 3 24 9 52 12 63 l6 20 8 -20 c4 -11 8 -33 8 -50z m-2749 31 l45 -15
-48 0 c-88 -2 -137 -46 -137 -123 0 -53 5 -60 55 -87 l40 -22 -43 5 c-65 7
-82 27 -82 100 0 71 1 72 58 120 50 41 50 41 112 22z m4960 -34 c42 -41 46
-54 29 -99 -8 -22 -12 -24 -19 -13 -6 8 -10 27 -10 41 0 14 -14 45 -30 67 -38
53 -23 54 30 4z m-4745 8 c-44 -11 -75 -11 -75 0 0 6 23 9 53 9 44 -1 48 -2
22 -9z m4372 -96 c-7 -7 -37 7 -37 17 0 6 9 5 21 -1 11 -7 19 -14 16 -16z
m1975 -71 l77 -78 21 -100 c22 -102 34 -176 70 -419 22 -154 21 -161 -35 -168
-40 -5 -47 7 -10 16 24 6 25 10 25 74 0 72 -5 107 -45 337 -36 212 -43 228
-135 330 -44 48 -80 91 -80 96 0 18 35 -9 112 -88z m-2013 54 c55 -27 86 -125
69 -217 -12 -69 -30 -90 -77 -90 l-36 1 30 13 c17 7 36 20 43 29 35 41 19 180
-25 225 -23 23 -29 24 -96 18 -40 -4 -89 -10 -109 -13 -62 -9 -43 13 25 30 76
19 144 21 176 4z m-1838 -61 c-17 -24 -50 -60 -74 -79 -84 -68 -81 -54 7 37
50 51 93 92 94 90 2 -1 -10 -23 -27 -48z m2315 3 c-5 -34 -4 -39 13 -39 11 0
23 -4 26 -10 10 -17 -21 -11 -45 8 -19 16 -22 24 -16 56 10 50 30 36 22 -15z
m3044 -47 c0 -4 -16 -23 -35 -42 -32 -31 -35 -39 -35 -91 0 -60 -13 -86 -24
-46 -3 12 -6 42 -6 66 0 37 5 49 39 82 36 37 61 49 61 31z m-2965 -77 c47 -49
95 -170 94 -237 l-1 -53 -13 35 c-7 19 -14 43 -14 52 -2 45 -46 132 -93 183
-44 49 -47 55 -28 55 13 0 37 -15 55 -35z m-2940 -5 c-28 -12 -37 -12 -30 0 3
6 16 10 28 9 21 0 21 -1 2 -9z m185 -40 l95 -18 -125 5 c-194 9 -206 -1 -269
-202 -37 -118 -54 -151 -45 -85 11 72 53 212 76 248 46 74 99 85 268 52z
m2845 -35 c9 -22 12 -35 7 -30 -6 6 -18 28 -27 50 -9 22 -12 36 -6 30 5 -5 17
-28 26 -50z m-5135 5 c-8 -5 -22 -10 -31 -10 -8 0 -24 -6 -35 -14 -18 -14 -16
-16 34 -38 55 -25 59 -38 10 -38 -37 0 -81 42 -76 73 3 22 31 33 88 36 20 0
22 -1 10 -9z m8345 -167 c-39 -120 -63 -177 -80 -193 -14 -13 -27 -21 -30 -18
-3 3 10 36 29 74 18 38 53 121 76 184 45 123 50 134 56 127 3 -2 -20 -81 -51
-174z m-3853 77 c-13 -6 -28 -23 -33 -40 -12 -33 -29 -31 -29 4 0 31 19 46 55
45 28 0 29 -1 7 -9z m-2566 -158 c-44 -196 -92 -257 -201 -257 -53 1 -212 41
-202 51 2 2 46 -2 98 -10 188 -27 215 -9 273 184 13 47 31 102 37 124 23 70
21 20 -5 -92z m2484 99 c0 -42 -24 -61 -76 -61 -53 0 -51 16 3 26 27 5 38 14
47 35 14 37 26 37 26 0z m787 -28 c12 -25 27 -39 47 -44 33 -9 195 4 315 26
46 8 86 13 89 11 16 -17 -154 -57 -306 -72 -93 -9 -155 12 -171 57 -9 26 -6
59 5 59 2 0 12 -17 21 -37z m658 -7 c19 -8 35 -20 35 -27 0 -7 -7 -8 -17 -4
-10 4 -30 12 -45 17 -16 5 -25 14 -22 19 7 12 9 12 49 -5z m844 -130 c12 -76
24 -143 28 -149 3 -6 12 -2 20 9 13 17 14 15 11 -25 -3 -41 -27 -75 -43 -59
-4 3 -15 75 -26 160 -31 248 -24 289 10 64z m-6609 112 c0 -24 -16 -56 -23
-48 -5 6 12 70 18 70 3 0 5 -10 5 -22z m7827 -21 c-11 -68 -159 -368 -174
-353 -2 2 16 41 41 87 24 46 63 133 86 192 43 110 57 132 47 74z m-2076 -2
c36 -19 54 -54 68 -130 12 -70 18 -202 9 -211 -7 -6 -11 12 -27 144 -14 106
-40 169 -76 178 -29 7 -159 -1 -245 -15 -30 -4 -56 -7 -58 -6 -2 2 36 15 85
30 48 14 93 28 98 30 19 8 117 -6 146 -20z m-640 -53 c-14 -5 -38 14 -53 41
-8 15 -2 14 27 -9 21 -15 32 -30 26 -32z m-837 39 c7 -10 -16 -21 -44 -21 -29
0 -32 -15 -15 -72 22 -75 17 -91 -10 -33 -29 61 -32 110 -7 124 21 13 69 14
76 2z m-89 -141 c31 -82 30 -104 -8 -108 -30 -4 -36 12 -10 27 16 9 16 14 -5
78 -25 75 -26 87 -13 79 5 -4 21 -37 36 -76z m-4265 52 c0 -5 -18 -23 -40 -41
-49 -40 -51 -65 -9 -139 17 -30 28 -56 25 -59 -6 -6 -96 115 -96 129 0 25 46
88 74 102 36 18 46 19 46 8z m1910 -69 c-27 -59 -28 -92 -4 -110 22 -16 17
-16 -25 -2 -33 12 -40 29 -17 48 8 7 25 37 37 67 12 29 24 52 27 50 2 -3 -6
-26 -18 -53z m4970 7 c10 -6 -3 -8 -42 -7 -31 1 -54 5 -51 10 6 10 75 9 93 -3z
m-5450 -40 c0 -7 -14 -8 -37 -4 -52 9 -54 14 -5 14 23 0 42 -5 42 -10z m5477
-9 c23 -11 44 -29 48 -41 10 -31 -2 -37 -28 -13 -58 53 -113 58 -128 13 -14
-39 -32 -28 -23 13 3 18 8 35 11 40 8 14 78 7 120 -12z m-5697 -16 c34 0 46
-5 48 -18 4 -22 -34 -23 -102 -2 -72 22 -125 19 -153 -7 -29 -27 -31 -6 -2 23
20 20 28 21 93 14 39 -5 91 -9 116 -10z m228 -11 c86 -18 173 -52 135 -53 -13
-1 -75 10 -139 24 -65 13 -121 22 -125 19 -13 -7 -30 6 -24 17 9 13 66 11 153
-7z m5585 -9 c45 -23 47 -35 8 -35 -20 0 -35 8 -45 22 -17 24 -21 42 -8 36 4
-2 24 -12 45 -23z m-1058 -60 c10 -42 24 -84 34 -96 9 -12 42 -26 81 -35 90
-21 92 -30 6 -24 -98 7 -135 39 -149 134 -5 34 0 96 9 96 1 0 10 -34 19 -75z
m-4829 44 c69 -18 64 -30 -10 -28 -36 1 -69 0 -72 -3 -3 -3 2 -33 10 -66 23
-87 18 -95 -15 -27 -30 63 -38 120 -16 128 21 9 56 7 103 -4z m744 -44 c53
-27 48 -17 83 -165 8 -36 17 -69 19 -75 1 -5 -1 -11 -7 -11 -5 -1 -20 36 -32
82 -12 46 -29 97 -37 113 -20 38 -65 55 -126 48 -27 -3 -52 -2 -55 4 -4 5 4 9
17 9 13 0 30 5 38 10 24 15 47 12 100 -15z m2385 15 c3 -6 0 -13 -8 -16 -8 -3
-18 -24 -22 -47 l-8 -42 -12 40 c-8 25 -9 46 -3 58 9 18 43 23 53 7z m2956
-16 c39 -42 53 -46 125 -33 58 10 68 9 82 -5 16 -16 14 -16 -25 -10 -29 4 -55
1 -84 -10 -53 -21 -68 -16 -107 39 -35 49 -30 60 9 19z m-59 -2 c21 -9 82 -92
73 -100 -4 -4 -22 10 -40 31 -34 39 -72 55 -145 58 l-35 2 40 7 c53 10 86 10
107 2z m1014 -138 c-4 -13 -19 -26 -36 -32 -35 -13 -37 -9 -10 18 11 11 20 29
20 40 0 10 6 43 13 72 l12 53 3 -65 c2 -35 1 -74 -2 -86z m-6179 22 c19 -78
29 -85 121 -87 31 -1 68 -5 82 -9 l25 -8 -26 -1 c-14 -1 -59 -4 -100 -7 -41
-3 -80 -1 -87 4 -11 7 -52 153 -52 185 0 29 21 -15 37 -77z m2199 49 c7 -26
-17 -75 -37 -75 -10 0 -7 31 7 83 8 25 23 21 30 -8z m2468 4 c-26 -12 -50 -33
-64 -56 -24 -39 -37 -32 -26 13 11 42 41 64 89 63 l42 -1 -41 -19z m-124 -72
c-25 -65 -43 -75 -97 -50 l-38 17 50 5 c48 6 51 8 74 55 32 63 38 46 11 -27z
m865 53 c0 -11 -13 -16 -47 -18 -53 -3 -63 11 -20 27 36 13 67 9 67 -9z
m-6366 -37 c58 -115 87 -327 57 -407 -20 -52 -54 -89 -43 -46 36 136 33 211
-17 384 -14 48 -26 92 -26 97 0 18 10 8 29 -28z m3172 -62 c-16 -30 -13 -79
13 -214 13 -67 26 -144 29 -172 l6 -50 -19 60 c-46 139 -63 222 -64 306 -1 73
2 90 19 109 20 22 20 22 23 2 2 -12 -2 -30 -7 -41z m3218 17 c1 -5 -3 -8 -9
-8 -5 0 -10 12 -9 28 0 24 1 25 9 7 5 -11 9 -23 9 -27z m-1291 -19 c28 -10 91
-83 80 -94 -2 -3 -23 11 -45 29 -22 19 -52 37 -66 40 -15 3 -38 8 -52 11 -14
3 -25 10 -25 15 0 13 69 13 108 -1z m1453 -13 c-29 -31 -28 -34 50 -232 64
-162 103 -233 143 -260 29 -18 34 -34 11 -34 -26 0 -89 66 -107 112 -9 24 -49
121 -88 216 -39 96 -69 179 -67 185 2 8 52 32 76 36 3 1 -6 -10 -18 -23z
m-1170 -8 c48 -14 52 -31 6 -23 l-34 7 -13 -74 c-12 -63 -15 -69 -21 -43 -9
39 -11 109 -3 129 7 19 15 20 65 4z m-6320 -83 c18 -45 40 -76 93 -128 38 -37
66 -70 63 -74 -9 -8 -111 72 -140 110 -36 48 -44 67 -55 126 -12 67 4 53 39
-34z m6152 58 l28 -28 19 25 c20 26 25 16 14 -27 -10 -37 -34 -36 -70 3 -52
54 -44 77 9 27z m1246 13 c15 -17 151 -353 151 -372 0 -35 -18 -7 -50 79 -43
117 -112 258 -133 276 -10 7 -17 17 -17 22 0 14 36 10 49 -5z m-5200 -66 c16
-74 46 -155 71 -190 36 -51 16 -56 -25 -6 -33 40 -41 61 -56 139 -21 108 -22
120 -10 113 5 -4 14 -29 20 -56z m5810 -11 c1 -24 -33 -68 -44 -58 -4 4 10 75
22 109 4 12 7 11 13 -5 5 -11 9 -32 9 -46z m-5845 -61 l6 -53 -14 40 c-17 46
-21 127 -6 88 5 -13 12 -46 14 -75z m4063 -39 c-5 -81 -38 -170 -88 -240 -35
-49 -33 -26 7 67 57 137 68 187 49 223 -14 27 -13 30 3 34 31 7 35 -5 29 -84z
m-5178 -22 c1 -23 -3 -36 -9 -32 -5 3 -10 32 -9 63 1 44 3 51 9 32 4 -14 8
-42 9 -63z m6895 -102 c8 -66 -9 -113 -50 -142 -74 -52 -175 -86 -144 -48 7 8
17 15 23 15 6 0 34 14 63 32 55 33 74 61 74 107 0 40 11 91 20 91 4 0 10 -25
14 -55z m-5669 -99 c8 -80 3 -181 -8 -193 -16 -15 -21 14 -27 135 -4 98 -9
135 -23 155 -29 44 -18 54 17 16 30 -33 35 -45 41 -113z m1868 -79 c18 -121
-18 -217 -81 -217 -36 0 -102 21 -102 33 0 9 52 5 97 -8 17 -6 25 -1 37 24 26
49 29 109 11 211 -9 52 -18 115 -20 140 -4 41 -3 39 21 -30 14 -41 30 -110 37
-153z m-3898 80 c-23 -12 -55 10 -55 39 l0 25 35 -28 c27 -22 31 -29 20 -36z
m2075 -65 l5 -107 45 -3 c25 -1 52 -5 60 -8 13 -4 13 -6 0 -14 -17 -11 -109
-2 -127 13 -9 6 -13 40 -13 101 0 169 22 182 30 18z m-1311 71 c-2 -21 1 -51
6 -68 8 -30 8 -30 -13 -11 -31 27 -35 51 -17 86 20 40 26 38 24 -7z m5118
-160 c-108 -230 -111 -241 -103 -397 3 -72 9 -142 12 -156 5 -17 3 -22 -3 -15
-16 15 -43 168 -43 240 0 77 22 146 97 305 66 140 105 208 110 193 3 -7 -29
-83 -70 -170z m-5452 127 c-11 -5 -27 -9 -35 -9 -13 -1 -13 0 0 9 8 5 24 9 35
9 l20 0 -20 -9z m6819 -112 c11 -26 13 -44 7 -60 -13 -33 -89 -109 -163 -164
-62 -46 -229 -147 -263 -161 -45 -16 6 24 142 114 80 53 169 120 199 149 59
57 62 71 44 164 -4 25 -5 49 -2 55 4 5 9 -6 13 -25 3 -19 14 -52 23 -72z
m-6784 56 c16 -41 12 -49 -13 -26 -30 29 -44 28 -98 -7 -91 -59 -139 -132
-139 -212 0 -40 4 -47 92 -131 96 -91 104 -110 26 -58 -58 39 -125 111 -144
155 -12 30 -12 40 2 77 8 24 21 58 27 77 19 56 153 150 215 151 15 0 26 -8 32
-26z m82 -19 c36 -34 43 -36 96 -33 57 3 57 3 60 36 4 39 23 38 37 -2 11 -33
-6 -50 -69 -67 -53 -14 -110 3 -153 46 -60 60 -35 77 29 20z m-270 -5 c-39
-36 -45 -37 -66 -5 -16 24 -16 24 13 19 16 -3 37 -1 48 5 35 20 38 10 5 -19z
m499 -53 c-17 -17 -24 -1 -10 25 12 21 14 21 17 4 2 -10 -1 -23 -7 -29z m4995
-116 c-28 -71 -53 -127 -54 -126 -12 11 86 255 102 255 2 0 -19 -58 -48 -129z
m-5131 87 c63 1 68 0 51 -13 -28 -21 -80 -19 -126 5 -22 11 -40 23 -40 26 0 2
10 -1 22 -7 12 -7 54 -11 93 -11z m1537 -40 c10 -8 22 -49 32 -109 25 -151 22
-168 -32 -154 l-27 7 24 11 c22 10 23 15 18 77 -3 36 -11 82 -17 102 -9 32
-17 39 -51 48 -22 6 -37 15 -34 20 9 14 68 12 87 -2z m1714 -77 c-18 -26 -26
-50 -26 -80 l0 -44 53 7 c28 3 63 9 77 12 22 6 23 5 10 -8 -19 -19 -93 -48
-123 -48 -34 0 -47 19 -47 71 0 39 6 54 35 89 19 23 35 47 36 53 0 8 3 7 6 -1
3 -7 -7 -30 -21 -51z m-363 2 c46 -17 50 -17 79 0 45 26 55 20 23 -13 -36 -37
-57 -37 -120 0 -57 34 -51 38 18 13z m-1272 -74 c6 -35 13 -75 15 -88 l5 -24
144 6 c79 4 152 10 162 13 12 5 15 4 8 -3 -25 -27 -246 -59 -305 -45 -32 7
-35 11 -35 43 -1 33 -10 106 -21 159 -4 18 -2 22 6 14 6 -6 15 -39 21 -75z
m1506 69 c27 -7 50 -14 53 -16 2 -1 3 -34 2 -72 -3 -60 -1 -70 17 -79 11 -6
29 -11 40 -11 12 0 21 -4 21 -10 0 -20 -47 -9 -73 18 -19 20 -27 41 -31 81 -3
30 -11 58 -18 63 -17 12 -88 1 -116 -18 -36 -24 -37 -10 -2 25 35 35 41 36
107 19z m-262 -30 c47 -23 62 -45 23 -34 -75 20 -68 26 -68 -56 0 -77 -16
-118 -46 -118 -12 0 -9 8 11 32 18 21 25 38 21 52 -23 79 -27 117 -16 131 16
20 21 19 75 -7z m-85 -119 c0 -51 -18 -63 -87 -56 -82 9 -92 27 -15 27 l62 0
0 44 c0 24 3 52 7 62 6 16 9 14 19 -11 7 -17 13 -46 14 -66z m-3409 16 c30
-85 22 -109 -12 -37 -34 73 -58 80 -72 20 -8 -34 4 -106 28 -162 6 -14 5 -18
-6 -14 -25 8 -51 67 -56 126 -3 46 0 63 17 90 17 28 26 33 52 30 28 -3 33 -9
49 -53z m4099 35 c13 -9 13 -10 0 -9 -8 1 -26 5 -40 9 l-25 8 25 1 c14 0 32
-4 40 -9z m145 -30 c23 13 48 20 56 18 10 -4 6 -9 -11 -16 -14 -5 -34 -19 -44
-31 -27 -30 -51 -26 -94 15 l-37 35 44 -22 45 -21 41 22z m-122 -25 c35 -24
48 -45 28 -45 -4 0 -25 11 -45 25 -36 24 -37 24 -97 9 -74 -19 -86 -13 -27 14
59 28 96 27 141 -3z m-1380 -5 c-14 -6 -32 -6 -45 0 -19 7 -15 9 22 9 37 0 41
-2 23 -9z m1575 -29 c5 -50 -7 -108 -19 -90 -5 8 -9 31 -9 52 0 35 -1 37 -21
27 -31 -17 -36 -3 -9 25 32 34 54 29 58 -14z m-1681 23 c-3 -3 -12 -4 -19 -1
-8 3 -5 6 6 6 11 1 17 -2 13 -5z m540 -45 c-20 -17 -49 -50 -63 -75 -28 -47
-33 -51 -52 -32 -17 17 -15 28 7 28 10 0 31 18 47 41 31 44 60 69 84 69 8 0
-1 -13 -23 -31z m-367 3 c25 -12 36 -25 38 -44 5 -39 27 -52 103 -59 37 -3 79
-13 92 -22 35 -23 165 -236 194 -319 15 -43 28 -104 31 -148 5 -93 -7 -111
-106 -163 -38 -20 -75 -43 -82 -52 -14 -17 -30 -20 -30 -5 0 9 104 81 158 109
20 11 22 19 22 95 0 104 -18 165 -86 291 -79 148 -104 171 -219 200 -79 20
-95 30 -95 56 0 10 -11 26 -26 35 -21 15 -42 16 -142 11 -64 -4 -134 -10 -154
-13 -69 -12 -40 12 35 28 102 22 223 23 267 0z m1555 -98 l-6 -61 50 -37 c65
-46 66 -64 2 -31 -82 41 -96 81 -69 196 12 50 12 51 20 23 5 -16 6 -56 3 -90z
m-2152 84 c19 -11 3 -14 -113 -19 -122 -6 -158 -12 -213 -34 -30 -12 -46 -58
-53 -154 -4 -50 -10 -91 -15 -91 -15 0 -22 114 -11 169 14 67 30 85 100 111
104 39 252 48 305 18z m1077 -7 c20 -6 14 -9 -30 -13 -46 -5 -58 -11 -83 -39
-41 -50 -43 -71 -12 -130 14 -28 31 -63 36 -77 9 -23 8 -24 -7 -11 -17 14 -56
72 -80 118 -11 20 -10 30 6 61 36 71 68 100 108 99 21 -1 48 -4 62 -8z m-330
-52 c0 -10 -61 0 -77 14 -7 5 -11 13 -8 17 6 10 85 -19 85 -31z m2786 -104
c21 -120 18 -160 -20 -250 -64 -151 -71 -158 -117 -109 -22 25 -22 26 -4 22
11 -3 27 -9 36 -12 13 -6 23 7 45 61 29 67 29 71 27 243 -2 187 6 197 33 45z
m-5472 94 c39 -11 75 -25 81 -30 11 -11 9 -11 -56 2 -30 5 -75 10 -101 10 -49
0 -57 6 -36 27 16 16 30 15 112 -9z m-203 -16 c13 -16 12 -17 -3 -4 -10 7 -18
15 -18 17 0 8 8 3 21 -13z m4357 -161 c58 -31 77 -74 69 -160 -7 -73 -33 -137
-70 -171 -23 -21 -29 -22 -61 -11 -56 18 -56 33 0 29 48 -4 49 -4 73 40 17 32
25 64 28 115 5 86 -6 111 -66 146 -25 14 -46 31 -49 38 -4 14 10 9 76 -26z
m-4448 -15 c0 -32 37 -91 105 -167 37 -41 71 -83 77 -93 34 -63 -130 98 -181
178 -29 46 -40 102 -24 118 9 9 23 -13 23 -36z m1809 -70 c1 -89 -16 -142 -51
-156 -114 -47 -198 -77 -198 -70 0 5 47 31 104 58 100 48 103 50 109 88 4 21
7 63 7 93 0 30 3 66 7 79 6 23 7 23 14 5 4 -10 8 -54 8 -97z m4911 82 c0 -30
-40 -64 -105 -88 -83 -31 -91 -20 -15 20 38 20 73 47 85 65 21 34 35 35 35 3z
m-2172 -55 l2 -29 -14 25 c-19 31 -20 43 -3 38 6 -3 13 -18 15 -34z m1237
-121 c-7 -21 -25 -66 -39 -100 -28 -68 -33 -125 -13 -140 6 -6 30 -17 52 -24
l40 -14 -42 -3 c-57 -4 -80 11 -93 58 -10 38 -8 46 42 150 52 108 80 146 53
73z m-528 -62 c-14 -17 -39 -55 -57 -86 -44 -76 -91 -125 -123 -125 -16 0 -36
12 -56 35 -51 58 -40 74 16 25 18 -16 40 -30 48 -30 8 0 42 37 76 83 71 94
111 139 117 132 2 -2 -7 -18 -21 -34z m223 17 c96 -29 176 -91 186 -145 10
-51 -10 -62 -25 -14 -22 74 -137 140 -249 144 -59 2 -53 6 -170 -128 l-43 -50
32 63 c40 78 98 139 136 144 35 5 88 -1 133 -14z m-2161 -48 c1 -13 0 -13 -9
0 -5 8 -9 24 -9 35 l0 20 9 -20 c5 -11 9 -27 9 -35z m-1530 5 c-8 -8 -55 -33
-104 -54 -49 -22 -91 -45 -93 -50 -6 -18 43 -115 79 -156 48 -54 101 -76 167
-68 36 4 52 2 52 -6 0 -35 -120 -32 -193 6 -33 17 -79 86 -108 162 -32 87 -22
98 136 157 73 27 84 28 64 9z m-1718 -67 c18 -35 49 -92 70 -126 22 -35 39
-66 39 -69 0 -17 -36 30 -86 113 -31 52 -63 94 -70 94 -14 0 -19 31 -7 43 14
15 24 5 54 -55z m4442 20 c-4 -29 -1 -34 24 -45 15 -6 66 -28 113 -47 110 -46
139 -46 181 -1 41 43 56 45 32 4 -37 -64 -61 -82 -99 -75 -72 14 -284 117
-284 139 0 7 32 56 37 57 1 0 -1 -15 -4 -32z m-233 4 c0 -4 -9 -15 -20 -25
-26 -22 -25 -32 6 -132 31 -99 26 -116 -43 -146 -50 -21 -63 -23 -63 -10 0 5
20 19 44 31 24 11 47 28 50 36 3 8 -1 43 -9 77 -17 73 -19 116 -5 151 9 23 40
37 40 18z m54 -38 c24 -9 19 -26 -6 -22 -22 3 -23 0 -20 -49 4 -57 -8 -69 -26
-28 -13 28 -16 88 -5 98 8 9 36 9 57 1z m1992 -90 c-7 -18 -176 -101 -223
-110 -39 -7 -105 11 -137 38 -27 22 -11 23 60 2 49 -14 59 -14 107 0 94 29
150 66 172 116 l20 44 3 -38 c2 -21 1 -44 -2 -52z m-1778 26 c54 -28 129 -61
167 -75 40 -14 59 -25 45 -24 -27 0 -70 14 -230 78 -117 47 -114 46 -105 60
10 17 21 14 123 -39z m-3018 30 c0 -26 -34 -71 -99 -133 -80 -75 -126 -102
-189 -110 -26 -3 -54 -15 -69 -29 -16 -14 -24 -17 -21 -8 2 8 47 36 99 61 98
48 193 124 240 194 24 35 39 44 39 25z m3456 -25 c35 -47 23 -57 -20 -16 l-33
32 -31 -38 c-37 -46 -53 -38 -23 11 36 57 69 61 107 11z m-3404 -70 l18 -50
-29 35 -30 35 -36 -43 c-20 -23 -46 -47 -57 -53 -20 -11 -20 -10 1 20 13 18
34 39 48 48 14 9 29 27 34 41 13 34 29 24 51 -33z m-1242 -19 c7 -24 28 -46
70 -75 33 -23 60 -44 60 -47 0 -2 -31 11 -69 30 -55 28 -69 40 -74 63 -3 15
-9 36 -12 46 -4 9 -3 17 3 17 6 0 15 -15 22 -34z m2930 15 c0 -5 -29 -27 -64
-50 -56 -37 -64 -46 -70 -81 -7 -48 -21 -52 -30 -9 -8 43 1 55 85 104 87 51
79 47 79 36z m3653 -22 c24 -30 20 -83 -13 -154 -29 -64 -36 -44 -16 44 9 38
13 77 10 85 -9 23 -46 30 -135 23 -160 -13 -272 -58 -335 -134 -20 -24 -38
-42 -41 -40 -10 11 39 87 69 110 90 66 225 99 382 93 49 -2 62 -7 79 -27z
m-588 -29 c8 -58 1 -72 -58 -101 -51 -27 -86 -20 -38 7 51 29 68 47 75 77 8
33 -1 34 -73 7 -29 -12 -59 -19 -65 -17 -11 4 120 76 141 77 6 0 14 -22 18
-50z m-399 11 c55 -26 88 -51 67 -51 -10 0 -161 50 -198 66 -30 13 -30 13 20
13 35 1 68 -7 111 -28z m-6015 -127 c-11 -44 -48 -164 -82 -269 -34 -104 -64
-198 -66 -207 -4 -12 3 -21 22 -28 36 -14 27 -22 -13 -14 -19 4 -32 13 -32 22
0 34 178 587 187 579 2 -3 -5 -40 -16 -83z m468 42 c90 -46 131 -92 144 -164
9 -44 -7 -33 -31 21 -26 59 -99 114 -185 141 -21 7 -14 26 9 26 8 0 36 -11 63
-24z m3905 -9 c-2 -7 -27 -26 -55 -42 -60 -36 -67 -55 -50 -149 6 -38 10 -71
8 -73 -8 -7 -50 103 -54 142 -6 53 9 71 88 105 35 15 65 28 66 29 1 1 0 -5 -3
-12z m-2369 -17 c7 -11 -16 -67 -40 -95 -16 -19 -16 -19 -11 14 3 19 1 40 -4
47 -8 9 -5 16 12 28 26 18 35 20 43 6z m-640 -20 c-4 -6 -21 -17 -40 -24 -24
-10 -36 -24 -45 -52 -13 -37 -13 -38 -22 -14 -14 38 -1 70 35 85 38 17 81 19
72 5z m1809 -16 c21 -54 -15 -308 -54 -384 -15 -30 -81 -80 -105 -80 -4 0 16
25 43 55 66 72 80 118 88 288 7 129 14 159 28 121z m-1163 -75 l-20 -50 22 -8
22 -8 -23 -7 c-46 -15 -54 14 -21 81 29 60 43 54 20 -8z m2189 10 c0 -23 13
-71 31 -112 30 -72 68 -278 69 -375 0 -68 -17 -40 -25 40 -7 74 -53 302 -80
394 -17 59 -19 94 -5 94 6 0 10 -18 10 -41z m-3517 -68 c63 -106 137 -139 236
-106 73 24 83 14 18 -18 -73 -35 -120 -35 -178 1 -78 50 -131 129 -128 192 0
17 0 17 52 -69z m5733 64 c-11 -8 -29 -15 -40 -15 -17 1 -15 4 9 15 40 18 55
18 31 0z m-5183 -65 c-7 -28 -54 -50 -116 -56 l-52 -4 65 23 c62 21 66 24 79
67 14 44 15 44 22 18 4 -15 5 -37 2 -48z m5717 2 c0 -27 7 -45 21 -58 29 -26
51 -71 47 -97 -2 -16 -15 0 -51 62 -36 61 -47 90 -43 107 10 37 26 28 26 -14z
m-4872 -44 c7 -7 12 -39 12 -73 0 -50 -5 -69 -29 -107 -32 -51 -51 -106 -51
-153 0 -23 -3 -27 -10 -15 -16 25 -11 51 35 165 49 123 48 139 -15 160 -32 11
-33 12 -15 23 26 15 58 15 73 0z m52 -48 c0 -22 -2 -40 -4 -40 -2 0 -6 18 -8
40 -2 22 0 40 4 40 5 0 8 -18 8 -40z m-916 15 c-10 -8 -25 -15 -32 -15 -7 0
-67 -18 -133 -41 -66 -22 -123 -38 -126 -35 -11 10 123 68 191 82 39 9 73 17
75 20 2 2 13 4 25 4 20 0 20 0 0 -15z m1982 -78 c-4 -24 -13 -53 -21 -63 -13
-17 -14 -16 -9 16 8 50 25 102 31 96 3 -3 2 -25 -1 -49z m-2451 7 l30 -25 -32
15 c-17 9 -35 20 -38 26 -11 18 10 10 40 -16z m3581 -144 c3 -52 2 -59 -6 -35
-5 16 -12 57 -15 90 -4 48 -3 55 5 35 6 -14 13 -54 16 -90z m2752 88 c17 -17
15 -131 -2 -173 -18 -41 -52 -65 -106 -72 -56 -8 -50 9 11 30 40 15 53 25 65
52 24 59 28 112 10 139 -9 14 -16 28 -16 31 0 10 26 5 38 -7z m-4992 -73 c-24
-56 -20 -94 11 -127 29 -30 23 -34 -26 -17 -37 13 -47 41 -32 95 13 47 53 114
58 97 2 -6 -3 -28 -11 -48z m891 -167 c-114 -114 -184 -201 -223 -278 -25 -49
-44 -58 -44 -19 0 18 109 165 214 289 52 62 112 109 139 110 11 0 -21 -38 -86
-102z m-3041 -13 c-8 -22 -67 -55 -99 -55 -33 0 -49 -24 -102 -155 -21 -52
-40 -93 -43 -91 -6 6 67 226 84 254 12 18 23 22 67 22 60 0 71 6 82 40 5 14
10 19 13 12 2 -7 1 -19 -2 -27z m2170 0 c25 -16 36 -62 23 -87 -16 -30 -29
-20 -29 22 0 36 -3 41 -34 54 -48 20 -58 40 -15 31 19 -4 44 -13 55 -20z
m2258 -73 c7 -12 51 -25 119 -37 20 -3 37 -10 37 -15 0 -16 -96 -12 -138 6
-48 19 -64 51 -55 107 l7 42 11 -46 c7 -26 15 -51 19 -57z m-1524 11 c-24 -32
-64 -83 -88 -113 -24 -30 -48 -65 -53 -77 -8 -21 -15 -23 -87 -23 -139 0 -238
25 -272 68 -31 38 -14 44 34 11 66 -47 225 -74 289 -50 14 6 45 40 70 78 47
74 136 177 145 169 2 -3 -15 -31 -38 -63z m-652 11 c4 -5 18 -18 32 -27 l24
-17 -35 0 c-44 0 -59 15 -59 60 1 33 1 34 16 15 8 -11 18 -25 22 -31z m4691
-31 c0 -35 -1 -36 -10 -14 -5 14 -7 31 -5 38 10 24 16 13 15 -24z m-2549 -44
c0 -6 -4 -7 -10 -4 -5 3 -10 11 -10 16 0 6 5 7 10 4 6 -3 10 -11 10 -16z
m-2103 0 c35 -13 73 -48 73 -67 0 -12 -4 -12 -22 2 -32 23 -69 42 -95 50 -18
6 -26 1 -42 -25 -17 -28 -21 -30 -27 -15 -4 9 -2 28 4 42 9 19 19 24 46 24 19
0 47 -5 63 -11z m-137 -53 c0 -24 -10 -48 -34 -78 -19 -24 -48 -71 -64 -105
-33 -67 -69 -98 -102 -88 -28 9 -25 23 6 31 44 11 131 137 163 237 16 46 31
48 31 3z m2547 -2 c44 -31 94 -141 100 -218 7 -84 -12 -137 -79 -217 -72 -88
-175 -140 -411 -209 -102 -31 -106 -31 -139 -14 -47 24 -68 44 -68 67 0 17 4
15 35 -12 46 -40 73 -40 226 4 169 49 241 86 316 160 50 50 65 72 78 120 23
76 15 152 -22 224 -35 67 -71 88 -171 97 -111 10 -102 27 12 22 75 -3 102 -8
123 -24z m2333 -9 c22 -27 5 -34 -25 -9 -27 22 -28 24 -9 24 12 0 27 -7 34
-15z m24 -150 c5 -57 5 -59 -9 -30 -8 17 -14 50 -14 75 0 62 15 32 23 -45z
m-4914 48 c-1 -16 -46 -87 -58 -91 -15 -4 -2 33 24 73 16 24 34 33 34 18z
m611 -30 c10 -27 4 -76 -13 -103 -6 -10 -8 4 -5 42 3 49 1 59 -15 64 -20 6
-15 24 8 24 8 0 19 -12 25 -27z m39 -199 c0 -58 5 -114 10 -125 15 -26 82 -59
124 -59 37 0 59 20 126 113 18 26 37 47 42 47 16 0 -46 -103 -88 -147 -49 -52
-82 -55 -161 -19 -63 30 -82 62 -90 155 -6 68 9 141 28 141 5 0 9 -48 9 -106z
m4348 64 c21 -70 34 -159 28 -189 -13 -69 -83 -129 -170 -149 -54 -12 -203
-16 -214 -6 -12 13 23 26 73 26 76 1 182 18 216 36 67 34 89 160 44 250 -30
59 -30 64 -6 64 13 0 23 -10 29 -32z m-3915 -5 c-7 -2 -21 -2 -30 0 -10 3 -4
5 12 5 17 0 24 -2 18 -5z m-1274 -12 c12 -8 10 -12 -12 -22 -15 -7 -37 -27
-48 -46 -29 -46 -41 -41 -23 9 23 66 46 82 83 59z m1368 -79 c39 -39 55 -72
36 -72 -4 0 -29 23 -55 50 -62 66 -93 67 -140 9 -18 -23 -48 -58 -66 -78 -31
-35 -32 -35 -22 -7 6 15 27 53 47 83 63 95 118 99 200 15z m393 -3 c-41 -40
-83 -70 -126 -90 -107 -47 -115 -32 -13 23 34 17 84 54 111 80 27 26 59 48 70
48 15 0 5 -14 -42 -61z m-1860 46 c0 -16 -32 -66 -48 -74 -9 -5 -39 -12 -67
-16 -59 -9 -52 5 12 24 27 7 50 22 63 41 19 27 40 40 40 25z m877 -52 c-3 -10
-5 -4 -5 12 0 17 2 24 5 18 2 -7 2 -21 0 -30z m1082 -16 c7 -21 11 -41 7 -45
-7 -7 -31 19 -39 42 -3 8 -12 7 -30 -3 -38 -20 -44 -7 -13 24 34 34 57 29 75
-18z m971 -24 c-38 -63 -113 -133 -143 -133 -2 0 32 37 75 81 43 45 78 86 78
92 0 6 3 8 6 4 4 -3 -4 -23 -16 -44z m-1370 -27 c-1 -17 -4 -14 -20 14 -25 45
-25 61 0 31 11 -13 20 -33 20 -45z m523 -103 c12 -12 19 -13 36 -4 25 14 28 0
4 -21 -12 -11 -25 -13 -39 -8 -26 10 -94 139 -93 176 0 24 7 14 39 -50 21 -43
45 -85 53 -93z m-2113 112 c-7 -8 -23 -15 -37 -15 -13 0 -34 -5 -45 -11 -20
-11 -20 -17 -14 -103 5 -70 3 -96 -7 -110 -12 -17 -14 -12 -14 35 0 30 -3 82
-8 115 -9 69 -8 70 64 89 66 19 76 19 61 0z m1562 -103 c-1 -37 -5 -76 -9 -87
-6 -19 -7 -18 -14 5 -9 32 -11 133 -3 155 14 35 29 -6 26 -73z m228 50 c0 -4
-17 -18 -38 -31 -57 -35 -65 -55 -70 -160 -7 -148 12 -255 74 -421 30 -79 53
-151 52 -159 -2 -8 -34 55 -72 140 l-70 154 -4 130 c-8 251 -8 260 11 288 24
38 117 84 117 59z m-1929 -98 c11 -50 11 -57 -7 -73 -20 -20 -124 -38 -124
-22 0 11 55 31 86 31 23 0 23 2 17 60 -8 78 11 81 28 4z m1333 27 c-21 -21
-64 -37 -64 -24 0 9 73 51 79 46 3 -2 -4 -12 -15 -22z m1044 6 c6 -6 13 -26
17 -42 l6 -30 -20 24 c-20 22 -22 23 -46 7 -30 -20 -32 -8 -4 28 23 29 32 32
47 13z m-1154 -26 c4 -5 -3 -7 -14 -4 -23 6 -26 13 -6 13 8 0 17 -4 20 -9z
m538 -91 c11 -16 17 -48 18 -90 2 -98 2 -97 -14 -80 -36 39 -60 184 -39 243 7
20 8 18 13 -13 3 -19 13 -46 22 -60z m959 19 c-24 -11 -64 -25 -89 -31 -29 -7
-46 -18 -50 -30 -5 -22 -20 -24 -29 -2 -9 24 9 35 104 59 108 29 121 29 64 4z
m2045 -14 c17 -23 35 -35 50 -35 26 0 150 44 170 61 7 6 18 8 24 4 22 -14 -20
-42 -93 -63 -127 -36 -125 -36 -156 -3 -29 31 -46 71 -31 71 5 0 21 -16 36
-35z m-53 -4 c20 -35 24 -62 5 -43 -20 20 -27 13 -21 -23 7 -44 -11 -47 -26
-4 -29 82 3 135 42 70z m-2207 -18 c40 -26 48 -79 31 -222 l-15 -126 -1 131
c-1 119 -12 194 -29 194 -4 0 -20 12 -37 26 l-30 25 29 -6 c15 -3 39 -13 52
-22z m-2541 -23 c3 -5 -7 -12 -22 -16 -40 -10 -52 -21 -59 -60 -10 -52 -24
-51 -24 0 0 33 6 52 20 66 21 21 74 27 85 10z m5043 -22 c4 -31 -5 -36 -22
-13 -9 11 -19 12 -51 5 -77 -18 -93 -10 -30 15 77 30 99 28 103 -7z m-349 -44
c10 -41 9 -49 -9 -79 -13 -21 -41 -44 -73 -60 -51 -25 -54 -25 -104 -10 -81
24 -76 36 14 33 68 -3 82 0 111 20 30 22 32 26 32 88 0 73 12 77 29 8z m-4821
-20 c-5 -62 -25 -87 -66 -82 -28 4 -30 22 -2 26 24 4 35 23 44 75 11 60 29 45
24 -19z m1870 21 c-3 -3 -9 2 -12 12 -6 14 -5 15 5 6 7 -7 10 -15 7 -18z
m-3908 7 c0 -5 -7 -17 -16 -28 -8 -10 -14 -14 -11 -9 2 6 7 18 10 28 7 17 17
23 17 9z m3939 -87 c12 -31 54 -131 95 -223 106 -238 109 -250 104 -384 -7
-170 -40 -222 -141 -221 -77 1 -81 20 -7 29 77 9 91 21 120 110 21 63 22 73
10 133 -16 81 -57 205 -144 427 -36 94 -66 174 -66 178 0 18 11 0 29 -49z
m-3990 -17 c-64 -126 -139 -241 -139 -213 0 4 22 44 49 89 26 44 61 103 76
129 33 59 45 56 14 -5z m4844 -107 c8 -99 31 -154 87 -205 37 -33 91 -56 135
-56 11 0 43 -6 70 -14 l50 -13 -35 -5 c-52 -8 -159 10 -196 33 -41 25 -85 80
-119 146 -19 40 -25 66 -25 119 0 38 3 80 7 93 6 22 7 23 13 5 4 -10 10 -57
13 -103z m2073 75 c-19 -29 -70 -59 -93 -54 -10 2 3 15 35 36 29 18 54 38 58
43 3 6 8 8 11 5 3 -3 -2 -17 -11 -30z m-5364 9 c155 -23 184 -33 235 -81 51
-48 47 -57 -7 -20 -115 77 -447 111 -610 61 -93 -29 -176 -139 -215 -285 -27
-100 -22 -120 53 -243 19 -31 32 -60 29 -63 -8 -8 -86 93 -110 144 -20 39 -20
48 -9 124 21 146 101 281 196 330 91 47 262 60 438 33z m353 -68 c-20 -47 -44
-48 -93 -2 -41 38 -28 46 24 14 36 -22 54 -19 54 10 0 9 6 23 13 30 19 19 21
-8 2 -52z m125 54 c0 -5 -10 -13 -22 -16 -13 -4 -35 -21 -50 -38 l-27 -32 -1
25 c0 42 26 70 66 70 19 0 34 -4 34 -9z m-994 -48 c-25 -27 -54 -59 -65 -73
l-20 -25 6 25 c7 26 95 120 113 120 6 0 -9 -21 -34 -47z m5639 26 c58 -22 68
-44 12 -28 -59 17 -91 11 -122 -21 -49 -51 -64 -34 -18 20 21 26 44 41 70 49
1 1 27 -8 58 -20z m-155 -19 c0 -27 -80 -96 -150 -128 -41 -19 -92 -48 -115
-64 -69 -50 -115 -78 -115 -70 0 11 87 76 135 100 22 11 85 55 140 96 55 42
101 76 103 76 1 0 2 -4 2 -10z m999 -45 c6 -6 7 -58 4 -127 l-6 -118 -34 -6
c-32 -6 -61 4 -37 13 43 15 49 30 52 127 l4 96 -55 0 c-56 0 -87 7 -87 19 0
10 149 6 159 -4z m-1084 -93 c-6 -5 -62 -43 -125 -84 -215 -141 -244 -193
-173 -315 14 -24 21 -43 16 -43 -12 0 -57 49 -72 77 -24 47 -4 132 42 181 50
54 270 192 307 192 8 0 10 -3 5 -8z m-1525 -156 c0 -15 -53 40 -74 76 -16 27
-11 24 27 -17 25 -27 46 -54 47 -59z m-5217 -22 c-72 -64 -79 -91 -36 -136 33
-35 26 -44 -20 -24 -81 34 -52 126 63 195 60 36 57 23 -7 -35z m7717 -48 c0
-42 -27 -121 -47 -138 -14 -11 -15 -10 -10 7 3 11 13 55 22 97 17 78 35 96 35
34z m-2133 2 c61 -15 96 -53 90 -98 -6 -44 -35 -115 -44 -107 -3 4 0 34 7 67
11 54 11 62 -4 79 -22 24 -83 39 -207 51 -55 5 -108 14 -117 20 -21 14 213 3
275 -12z m163 -24 c39 -15 69 -29 66 -32 -10 -10 -117 10 -131 24 -14 15 -20
34 -11 34 3 0 37 -12 76 -26z m610 -70 c0 -56 -13 -66 -23 -17 -5 26 7 73 18
73 3 0 5 -25 5 -56z m-5132 -19 l23 -40 -26 28 c-14 15 -25 35 -25 44 0 19 0
19 28 -32z m4612 18 c76 -21 138 -54 260 -139 133 -93 158 -113 141 -114 -7 0
-68 35 -135 79 -66 43 -137 87 -156 99 -56 33 -190 74 -222 68 -19 -4 -28 -1
-28 8 0 30 29 30 140 -1z m389 -173 c129 -89 152 -98 188 -75 37 25 37 37 -2
95 -41 60 -39 77 5 35 42 -40 64 -90 50 -114 -34 -64 -103 -67 -186 -9 -32 23
-98 67 -145 99 -47 32 -94 68 -105 80 -17 20 -15 20 31 -5 28 -14 101 -62 164
-106z m-4888 5 c48 -83 34 -142 -54 -228 -68 -66 -166 -142 -173 -134 -4 3 40
50 96 104 142 136 155 169 100 256 -16 25 -37 61 -46 79 l-16 33 32 -30 c18
-16 45 -52 61 -80z m4343 24 c-6 -57 -5 -63 17 -80 31 -23 16 -38 -19 -18 -34
18 -39 57 -17 115 9 24 19 44 21 44 3 0 2 -28 -2 -61z m-5552 -96 c-18 -43
-32 -82 -32 -86 0 -4 20 -17 45 -28 45 -20 66 -39 43 -39 -30 0 -91 23 -108
40 -23 23 -18 40 29 115 17 27 31 60 31 74 0 19 3 22 12 13 9 -9 4 -29 -20
-89z m4379 24 c-7 -19 -21 -43 -31 -52 -27 -24 -25 -13 5 31 14 20 25 44 25
52 0 8 3 13 6 9 3 -3 1 -21 -5 -40z m1193 -58 c27 -12 52 -61 41 -79 -4 -7
-15 0 -28 17 -12 15 -29 34 -39 41 -36 27 -18 41 26 21z m751 -29 c-11 -12
-30 -20 -49 -19 l-31 0 40 19 c53 24 62 24 40 0z m-2160 0 c4 -6 -8 -10 -27
-11 -56 -2 -80 -13 -93 -44 l-12 -30 -8 29 c-7 24 -4 33 15 48 24 20 114 26
125 8z m1489 -6 c9 -24 7 -94 -3 -94 -5 0 -11 25 -13 55 -3 54 4 71 16 39z
m-4418 -52 c-18 -16 -18 -16 -6 6 6 13 14 21 18 18 3 -4 -2 -14 -12 -24z
m2746 -103 c-17 -17 -27 -20 -66 -14 -25 4 -53 14 -63 22 -16 13 -10 14 54 10
l72 -4 8 31 7 31 4 -27 c2 -17 -4 -35 -16 -49z m1628 55 c0 -21 -45 -27 -87
-13 -31 10 -34 13 -18 19 34 12 105 8 105 -6z m2137 -38 c136 -68 187 -85 290
-97 128 -14 153 -30 153 -99 0 -39 -39 -79 -102 -103 l-43 -17 53 48 c44 39
54 54 55 82 l2 35 -146 37 c-141 35 -328 113 -369 153 -23 24 -7 18 107 -39z
m-2228 3 c73 -15 78 -33 7 -25 l-56 7 -17 -38 -16 -38 -8 28 c-8 30 -2 57 15
69 14 10 16 10 75 -3z m-5266 -48 c46 -34 86 -54 122 -62 74 -16 72 -33 -2
-24 -79 10 -141 46 -184 106 -29 41 -13 36 64 -20z m791 -63 c-45 -46 -105
-114 -133 -153 -47 -63 -52 -75 -49 -112 2 -24 -1 -44 -7 -46 -15 -6 -35 3
-35 16 0 28 96 204 133 245 39 42 151 132 165 132 4 0 -30 -37 -74 -82z m2836
62 c23 -14 15 -15 -102 -18 -120 -2 -128 -4 -128 -22 0 -26 -17 -26 -25 1 -4
13 0 28 12 41 16 18 27 20 118 16 63 -2 109 -9 125 -18z m140 0 c0 -5 -8 -10
-17 -10 -15 0 -16 2 -3 10 19 12 20 12 20 0z m1390 -63 c0 -16 -4 -37 -10 -47
-12 -22 -89 -53 -121 -48 -19 3 -13 8 34 28 42 17 59 30 62 47 16 77 16 77 26
62 5 -7 9 -27 9 -42z m-2300 -4 c60 -26 19 -24 -60 2 -72 24 -73 25 -25 19 28
-4 66 -13 85 -21z m510 -43 c0 -47 -85 -81 -201 -81 -81 0 -95 3 -149 32 -33
17 -60 36 -60 41 0 6 8 7 18 3 145 -59 178 -64 273 -44 60 13 89 38 89 77 1
26 1 26 15 8 8 -11 15 -27 15 -36z m-528 6 c80 -24 181 -77 161 -83 -6 -2 -49
12 -96 32 -170 70 -250 71 -322 4 -24 -22 -46 -51 -49 -65 -9 -36 16 -108 63
-179 22 -33 38 -62 36 -64 -22 -22 -135 158 -135 216 0 48 57 120 125 157 38
21 112 15 217 -18z m-272 20 c0 -2 -18 -23 -40 -47 -22 -24 -40 -37 -40 -29 0
15 58 80 72 80 4 0 8 -2 8 -4z m-2260 -137 c0 -10 -4 -19 -10 -19 -14 0 -38
52 -32 69 7 19 42 -23 42 -50z m4800 46 c0 -3 -34 -21 -74 -40 -45 -21 -83
-47 -96 -65 -12 -17 -26 -30 -31 -30 -16 0 33 81 59 98 34 22 142 50 142 37z
m-1764 -20 c-11 -8 -27 -15 -35 -15 -10 1 -7 6 9 15 33 19 50 18 26 0z m1556
-62 c-49 -71 -71 -92 -147 -137 -51 -31 -61 -34 -73 -22 -18 18 -6 39 18 31
23 -7 119 66 184 140 26 31 50 54 53 51 3 -2 -13 -31 -35 -63z m-4332 -29
l-29 -69 -91 -3 c-98 -3 -115 3 -122 43 -7 37 3 39 32 7 20 -23 39 -31 81 -36
30 -4 61 -4 69 -1 8 3 30 35 49 71 18 35 35 63 37 61 2 -2 -9 -35 -26 -73z
m3959 2 c-2 -2 -31 -6 -64 -9 -36 -3 -52 -2 -40 3 19 8 113 14 104 6z m3231
-21 c-7 -9 -15 -13 -17 -11 -7 7 7 26 19 26 6 0 6 -6 -2 -15z m-5233 -70 c14
-27 50 -76 80 -108 52 -55 55 -61 50 -98 -5 -41 -31 -89 -47 -89 -5 0 -4 14 2
33 24 75 23 79 -41 165 -59 77 -91 136 -91 164 0 17 12 -1 47 -67z m2121 55
c33 -21 46 -48 15 -31 -10 5 -30 14 -45 20 -28 11 -38 31 -15 31 6 0 27 -9 45
-20z m-318 1 c-8 -5 -28 -11 -45 -15 l-30 -6 25 15 c14 8 34 14 45 14 16 0 17
-1 5 -8z m-3590 -123 c0 -4 -4 -8 -9 -8 -15 0 -41 30 -41 47 0 13 5 12 25 -7
14 -13 25 -27 25 -32z m4051 28 c-10 -12 1 -19 66 -40 43 -14 65 -23 48 -20
-16 4 -63 9 -103 13 -40 3 -73 11 -74 16 0 6 14 18 33 27 42 21 44 21 30 4z
m2949 -38 c0 -33 -24 -58 -55 -58 -46 0 -74 -18 -83 -52 -7 -28 -13 -34 -40
-36 -17 -2 -39 1 -48 6 -14 8 -11 11 17 17 19 4 50 22 69 40 19 18 52 40 73
49 31 12 37 20 37 44 0 16 3 32 7 35 10 11 23 -14 23 -45z m-3710 28 c0 -2
-37 -24 -83 -49 -151 -82 -263 -170 -344 -272 -18 -22 -32 -34 -32 -26 -1 20
144 166 215 217 57 41 221 133 237 134 4 0 7 -2 7 -4z m-3240 -129 c0 -33 -25
-12 -28 24 -2 32 -1 33 13 15 8 -11 15 -28 15 -39z m150 -16 c22 -7 19 -9 -22
-16 -54 -8 -122 1 -113 16 7 11 98 11 135 0z m4153 -35 c34 -35 53 -46 98 -56
82 -18 104 -10 118 45 6 25 16 45 21 45 15 0 12 -93 -3 -114 -13 -17 -20 -18
-103 -6 -94 14 -129 26 -156 56 -17 20 -35 74 -24 74 4 0 25 -20 49 -44z
m-3648 -54 l0 -87 -30 -2 c-16 -2 -48 6 -70 17 l-40 19 60 -1 60 -2 1 56 c1
49 8 88 16 88 2 0 3 -39 3 -88z m228 24 c99 -49 118 -66 77 -66 -28 0 -134 58
-165 90 -16 16 -27 30 -24 30 3 0 53 -24 112 -54z m-603 11 c13 -17 48 -31
127 -53 114 -31 111 -44 -6 -24 -99 17 -151 43 -151 74 0 32 7 33 30 3z m4354
-3 c3 -9 6 -26 6 -39 0 -38 35 -55 115 -55 59 -1 67 -3 50 -13 -30 -17 -151
-15 -169 3 -18 18 -33 120 -18 120 5 0 13 -7 16 -16z m-2770 -88 c-15 -39 -33
-78 -41 -86 -28 -31 -13 38 24 110 45 88 56 74 17 -24z m4740 27 c-9 -53 -20
-63 -70 -63 -51 0 -58 15 -11 25 39 9 56 22 68 52 13 35 21 27 13 -14z m-5515
-86 c9 -8 39 -19 66 -25 68 -15 105 -29 105 -42 0 -7 -7 -7 -21 1 -12 6 -51
15 -87 20 -68 10 -92 22 -92 45 0 18 9 18 29 1z m5291 -32 c-16 -19 -132 -75
-156 -75 -26 0 -11 12 81 64 74 42 104 46 75 11z m-4600 -25 c-6 -19 -19 -48
-31 -65 l-21 -30 5 35 c3 19 13 52 22 74 20 47 39 37 25 -14z m3147 -7 c-5
-27 -2 -42 10 -55 20 -23 11 -33 -16 -18 -24 12 -26 30 -9 77 16 44 22 42 15
-4z m-3562 -118 c19 -3 51 -7 70 -10 19 -3 35 -11 35 -17 0 -6 -26 -9 -74 -6
-87 4 -116 22 -116 72 l0 31 26 -32 c16 -22 36 -34 59 -38z m438 38 c18 -21
18 -22 -8 -39 -37 -24 -52 -7 -30 36 9 17 17 30 18 28 1 -1 10 -13 20 -25z
m966 -341 c1 -187 -3 -201 -51 -168 -17 12 -18 16 -6 16 23 0 28 30 28 166 0
66 3 170 7 230 l8 109 6 -90 c4 -49 7 -168 8 -263z m-859 289 c-1 -13 -3 -13
-15 3 -19 26 -19 42 0 26 8 -7 15 -20 15 -29z m3241 -46 c174 -97 224 -115
404 -150 146 -28 225 -31 336 -11 97 18 114 27 141 79 l23 42 3 -33 c4 -42
-14 -64 -79 -92 -68 -29 -152 -37 -289 -28 -159 10 -319 47 -421 99 -83 41
-279 164 -279 174 0 10 9 5 161 -80z m969 78 c-1 -5 -12 -21 -25 -38 -30 -36
-34 -19 -4 19 21 26 29 32 29 19z m-4252 -35 c7 -7 12 -25 12 -40 0 -23 -4
-28 -25 -28 -27 0 -32 9 -14 27 17 17 1 35 -21 23 -24 -13 -30 -13 -30 0 0 10
34 28 56 29 5 1 15 -4 22 -11z m-261 -78 c19 0 54 5 78 11 59 15 79 5 32 -15
-27 -12 -60 -16 -115 -14 -77 3 -77 3 -80 32 l-4 29 28 -22 c15 -12 41 -21 61
-21z m222 -14 c14 -17 5 -20 -71 -31 -58 -8 -63 7 -10 28 47 20 67 21 81 3z
m-210 -35 c11 -7 5 -11 -22 -16 -20 -4 -37 -11 -37 -15 0 -33 185 -226 227
-236 15 -4 39 0 59 10 50 23 61 20 33 -10 -58 -63 -118 -45 -219 63 -90 96
-120 141 -120 180 0 31 2 33 33 33 17 0 38 -4 46 -9z m483 -316 c48 -40 97
-50 186 -37 99 15 115 15 73 -3 -103 -45 -120 -47 -192 -25 -45 13 -75 29 -88
46 -37 47 -26 58 21 19z"/>
<path d="M1590 8739 c-16 -28 -5 -66 21 -74 46 -15 90 50 57 83 -20 20 -66 15
-78 -9z"/>
<path d="M10670 2061 c-5 -11 -10 -36 -10 -55 0 -25 -6 -38 -20 -46 -17 -9
-20 -23 -22 -118 l-3 -107 -77 4 c-85 3 -143 -11 -158 -40 -18 -32 -52 -47
-133 -58 -43 -6 -95 -20 -117 -31 -22 -11 -57 -20 -78 -20 -62 0 -77 -18 -77
-91 0 -51 -3 -64 -20 -73 -11 -6 -34 -25 -52 -42 -37 -36 -41 -64 -21 -138 14
-52 1 -76 -39 -76 -32 0 -38 -21 -17 -62 9 -18 20 -58 23 -88 6 -51 8 -56 44
-73 20 -9 37 -23 37 -30 0 -25 -31 -57 -56 -57 -29 0 -64 -33 -64 -60 0 -34
27 -88 47 -94 11 -3 43 -2 71 4 58 11 77 6 87 -18 7 -20 -27 -52 -56 -52 -35
0 -59 -36 -59 -89 0 -42 4 -53 26 -70 15 -12 38 -21 53 -21 14 0 33 -5 41 -10
13 -9 11 -13 -9 -29 -22 -17 -25 -27 -25 -92 l-1 -74 56 -37 c35 -23 78 -42
110 -48 60 -11 89 -37 89 -79 0 -14 4 -31 8 -37 10 -16 88 -54 110 -54 27 0
52 32 63 79 5 22 23 60 40 84 20 28 33 62 36 91 5 45 7 46 39 46 27 0 35 5 40
24 3 14 3 30 -1 35 -3 6 7 23 22 37 27 26 28 28 26 126 -2 87 0 104 17 125 11
14 20 34 20 45 0 11 22 43 49 71 55 58 71 91 71 143 0 30 3 34 25 34 29 0 29
0 46 170 11 118 9 240 -9 370 -7 53 -8 55 -39 58 -37 4 -46 23 -41 88 2 33 8
41 35 53 40 18 43 34 43 227 0 178 2 174 -99 174 -49 0 -62 -4 -71 -19z m138
-14 c9 -7 12 -51 12 -159 0 -149 -7 -188 -35 -188 -20 0 -19 25 1 55 13 19 15
47 12 144 -1 66 -6 122 -10 126 -4 4 -21 8 -40 8 -31 2 -33 0 -38 -38 -3 -22
-13 -51 -22 -65 -9 -14 -20 -51 -23 -82 -4 -32 -11 -58 -15 -58 -12 0 -20 112
-9 132 5 10 16 18 24 18 11 0 15 13 15 55 0 41 4 56 18 64 19 11 90 4 110 -12z
m-223 -340 c28 -22 3 -29 -50 -15 -44 12 -50 11 -97 -15 l-50 -28 4 23 c2 12
14 28 28 35 34 17 141 17 165 0z m-295 -96 c-15 -9 -125 -40 -170 -48 -25 -4
-25 -4 -5 12 36 30 79 44 135 44 36 0 50 -3 40 -8z m450 -45 c8 -36 -2 -50
-14 -20 -8 20 -8 69 0 61 3 -3 9 -22 14 -41z m-685 -2 c14 -6 10 -10 -15 -20
-40 -17 -40 -17 -40 0 0 21 27 31 55 20z m770 -120 c4 -36 6 -153 3 -259 -5
-203 -9 -225 -51 -225 -20 0 -20 0 -1 21 18 20 19 39 19 275 0 187 3 254 12
254 7 0 14 -26 18 -66z m-865 -61 c0 -5 -9 -19 -20 -33 -13 -16 -20 -41 -20
-70 -1 -42 -2 -44 -15 -26 -34 44 -5 135 43 136 6 0 12 -3 12 -7z m-40 -218
c0 -9 -12 -21 -26 -27 -20 -9 -24 -17 -19 -35 7 -28 -10 -31 -25 -4 -16 31
-13 38 28 59 20 12 38 21 40 21 1 1 2 -6 2 -14z m-7 -173 c26 -27 26 -28 5
-29 -28 -2 -48 14 -48 38 0 26 12 24 43 -9z m840 -142 c-6 -22 -70 -86 -78
-78 -4 3 11 31 31 62 35 52 58 60 47 16z m-853 -16 c0 -3 -7 -12 -15 -20 -8
-9 -15 -24 -15 -35 0 -15 7 -19 38 -19 20 0 43 -4 51 -9 23 -15 -66 -35 -95
-22 -28 12 -43 73 -24 96 12 14 60 22 60 9z m151 -118 c8 -17 8 -29 0 -42 -9
-17 -10 -17 -11 5 0 14 -7 33 -17 43 -15 17 -15 18 1 18 9 0 21 -11 27 -24z
m589 -25 c0 -11 -10 -27 -21 -35 -24 -16 -26 -32 -14 -142 6 -59 5 -73 -9 -87
-10 -9 -22 -17 -27 -17 -12 0 -12 17 1 25 6 3 10 49 10 101 0 75 4 103 20 134
22 43 40 52 40 21z m-669 -98 c-17 -13 -31 -31 -31 -38 0 -19 49 -55 74 -55
12 0 31 -7 42 -15 17 -14 14 -15 -41 -9 -73 8 -95 25 -95 73 0 44 8 57 40 69
39 15 45 2 11 -25z m129 -167 c0 -8 -16 -23 -35 -35 -30 -18 -35 -25 -35 -59
0 -47 24 -72 107 -113 57 -27 57 -28 24 -29 -20 0 -54 11 -80 26 -74 43 -81
52 -81 106 0 57 13 88 38 88 10 0 27 7 38 15 24 18 24 18 24 1z m447 -103 c-3
-3 -11 -2 -17 2 -8 5 -7 11 2 22 12 15 13 14 16 -1 2 -10 1 -20 -1 -23z m-67
-64 c0 -28 -36 -95 -55 -102 -8 -4 -15 -5 -15 -4 0 5 42 122 47 130 8 13 23
-3 23 -24z m-216 -115 c3 -8 2 -12 -4 -9 -6 3 -10 10 -10 16 0 14 7 11 14 -7z
m26 -63 c20 -38 73 -37 85 0 4 10 11 19 16 19 14 0 11 -46 -5 -59 -26 -22
-126 13 -126 44 0 21 17 19 30 -4z"/>
</g>
</svg>
